<?xml version="1.0" encoding="UTF-8"?><svg id="Layer_2" xmlns="http://www.w3.org/2000/svg" viewBox="0 0 949.83 452.65"><defs><style>.cls-1{fill:#874a5c;}</style></defs><g id="Layer_1-2"><g><path class="cls-1" d="M23.46,34.52l1.64-.58,1.87,5.25,5.24-1.86-1.87-5.25,1.64-.58,4.47,12.57-1.64,.58-2.1-5.9-5.24,1.86,2.1,5.9-1.64,.58-4.47-12.57Z"/><path class="cls-1" d="M35.93,30.13l7.88-2.61,.45,1.37-6.25,2.07,1.31,3.96,5.28-1.75,.45,1.37-5.28,1.75,1.52,4.6,6.44-2.14,.45,1.37-8.07,2.68-4.19-12.67Z"/><path class="cls-1" d="M48.17,26.15l1.62-.5,3.5,11.37,6.33-1.95,.42,1.38-7.96,2.45-3.92-12.75Z"/><path class="cls-1" d="M60.11,22.53l1.63-.46,3.25,11.45,6.37-1.81,.39,1.39-8,2.27-3.64-12.84Z"/><path class="cls-1" d="M72.11,26.03c-1.08-4.18,.34-7.17,3.26-7.93,2.93-.76,5.63,1.17,6.71,5.35,1.1,4.24-.3,7.29-3.23,8.05s-5.64-1.23-6.74-5.46Zm8.25-2.14c-.84-3.25-2.65-4.84-4.61-4.33-1.96,.51-2.76,2.78-1.92,6.03,.86,3.31,2.68,4.96,4.64,4.45,1.96-.51,2.75-2.84,1.89-6.15Z"/><path class="cls-1" d="M87.17,17.11l-.48-1.85,1.63-.38,.4,1.87,1.37,6.84-1.12,.26-1.81-6.74Zm1.67,10.26c-.22-.95,.32-1.68,1.12-1.87,.8-.19,1.61,.23,1.83,1.18,.22,.95-.31,1.7-1.11,1.89-.8,.19-1.61-.25-1.83-1.2Z"/><path class="cls-1" d="M110.09,22.69l3.28-.6-1.87-10.29-3.28,.6-.26-1.42,8.25-1.5,.26,1.42-3.28,.6,1.87,10.29,3.28-.6,.26,1.42-8.25,1.5-.26-1.42Z"/><path class="cls-1" d="M133.77,17.68c-.27-2.2,1.66-3.53,6.71-4.56-.23-1.32-1.02-2.38-2.92-2.14-1.28,.16-2.46,.92-3.3,1.6l-.81-1.05c.93-.77,2.5-1.74,4.23-1.96,2.7-.33,4.22,1.1,4.52,3.54l.75,6.02-1.4,.17-.31-1.31h-.06c-.97,.99-2.3,1.89-3.68,2.06-1.85,.23-3.5-.61-3.71-2.37Zm7.16-.9l-.32-2.54c-4.18,.84-5.36,1.83-5.2,3.12,.14,1.11,1.21,1.43,2.34,1.29,1.12-.14,2.15-.8,3.17-1.87Z"/><path class="cls-1" d="M144.81,8.97l1.34-.12,.26,1.28h.04c.43-.96,.98-1.65,2.12-1.75,.98-.09,1.64,.42,2.03,1.53,.47-1.11,1.03-1.81,2.17-1.92,1.39-.13,2.3,.87,2.48,2.84l.65,7.05-1.67,.15-.64-6.93c-.1-1.13-.48-1.69-1.22-1.62-.69,.06-1.01,.6-1.45,1.67l.66,7.13-1.55,.14-.64-6.93c-.1-1.13-.44-1.7-1.18-1.63-.69,.06-1.09,.61-1.49,1.67l.66,7.13-1.67,.15-.9-9.85Z"/><path class="cls-1" d="M170.11,15.34l1-1.2c1.04,.97,2.45,1.59,3.96,1.56,1.84-.04,2.88-.94,2.86-2.16-.03-1.42-1.08-1.81-2.44-2.35l-1.96-.81c-1.34-.5-2.92-1.4-2.96-3.37-.04-2.03,1.76-3.58,4.32-3.64,1.68-.04,3.16,.6,4.17,1.56l-.88,1.12c-.9-.75-1.93-1.2-3.32-1.17-1.55,.03-2.58,.79-2.55,1.99,.03,1.28,1.29,1.72,2.44,2.14l1.9,.79c1.67,.61,3,1.52,3.04,3.49,.05,2.12-1.72,3.84-4.66,3.91-1.96,.04-3.68-.69-4.91-1.86Z"/><path class="cls-1" d="M183.06,2.38l1.7,.03-.07,3.95-.14,2.34h.06c1.02-1.08,2.2-1.89,3.73-1.87,2.35,.04,3.41,1.44,3.37,4.05l-.11,6.14-1.7-.03,.1-5.92c.03-1.87-.61-2.76-2.22-2.78-1.19-.02-1.99,.56-3.16,1.72l-.12,6.9-1.7-.03,.25-14.48Z"/><path class="cls-1" d="M196.58,7.33l1.41,.08,.02,2.35h.04c1.14-1.54,2.75-2.42,4.58-2.32,.73,.04,1.34,.18,1.94,.52l-.47,1.42c-.68-.26-1.04-.39-1.82-.43-1.49-.09-2.94,.58-4.25,2.58l-.34,5.77-1.69-.1,.59-9.87Z"/><path class="cls-1" d="M207.01,12.94c.34-3.2,2.94-4.89,5.59-4.61,2.85,.3,4.32,2.32,4.03,5.09-.04,.38-.12,.74-.19,1l-8.36-.88,.14-1.29,7.36,.77-.48,.42c.25-2.33-.79-3.6-2.6-3.79-1.83-.19-3.56,1.02-3.82,3.47-.27,2.55,1.26,4.02,3.46,4.25,1.18,.12,2.15-.14,3.11-.61l.49,1.16c-1.04,.54-2.36,.94-3.95,.77-2.97-.31-5.13-2.46-4.78-5.74Z"/><path class="cls-1" d="M217.9,23.21l.55-1.27c.25,.12,.56,.23,.87,.28,1.37,.21,2.34-.52,3.01-1.65l.4-.68-3.04-10.5,1.7,.26,1.55,5.76c.25,.92,.51,2.01,.77,3.02h.08c.49-.86,1.03-1.82,1.49-2.66l2.96-5.06,1.62,.25-5.99,9.89c-1.03,1.82-2.45,3.1-4.69,2.75-.46-.07-.94-.23-1.26-.4Z"/><path class="cls-1" d="M231.23,18.68c.46-2.17,2.72-2.79,7.83-2.13,.22-1.33-.19-2.58-2.07-2.97-1.26-.27-2.63,.07-3.65,.44l-.42-1.25c1.14-.43,2.94-.84,4.64-.48,2.66,.56,3.63,2.41,3.12,4.82l-1.25,5.93-1.38-.29,.14-1.34h-.06c-1.24,.6-2.79,1.02-4.15,.73-1.82-.38-3.11-1.72-2.74-3.45Zm7.07,1.47l.53-2.51c-4.23-.56-5.66-.01-5.93,1.26-.23,1.1,.68,1.74,1.8,1.98,1.1,.23,2.29-.06,3.6-.74Z"/><path class="cls-1" d="M258.74,14.51l1.65,.56-2.15,6.32,.06,.02,7.48-4.5,1.86,.63-10.17,6.14-1.37,4.02-1.65-.56,4.3-12.63Zm1.7,6.81l1.42-.93,1.93,9.94-1.84-.63-1.51-8.38Z"/><path class="cls-1" d="M271.3,17.73l1.57,.65-1.52,3.64-.99,2.12,.06,.02c1.35-.63,2.74-.95,4.16-.36,2.17,.9,2.64,2.6,1.64,5l-2.36,5.67-1.57-.65,2.28-5.47c.72-1.73,.45-2.79-1.04-3.41-1.09-.46-2.06-.22-3.57,.43l-2.65,6.37-1.57-.65,5.57-13.37Z"/><path class="cls-1" d="M277.7,33.44c.99-1.98,3.34-2.01,8.11-.07,.55-1.23,.47-2.54-1.24-3.4-1.15-.58-2.56-.6-3.64-.5l-.09-1.32c1.21-.12,3.05-.06,4.61,.72,2.43,1.22,2.9,3.25,1.79,5.45l-2.72,5.42-1.26-.63,.47-1.26-.05-.03c-1.35,.28-2.96,.29-4.2-.33-1.66-.83-2.57-2.45-1.77-4.03Zm6.46,3.22l1.15-2.29c-3.95-1.62-5.47-1.45-6.06-.28-.5,1,.21,1.86,1.23,2.37,1.01,.5,2.23,.53,3.67,.2Z"/><path class="cls-1" d="M292.53,32.85l1.19,.71-.73,1.51,.07,.04c1.45-.39,2.86-.52,4.19,.28,2.02,1.21,2.24,2.95,.91,5.19l-3.15,5.28-1.46-.87,3.03-5.08c.96-1.61,.85-2.69-.54-3.52-1.02-.61-2.01-.51-3.59-.08l-3.53,5.92-1.46-.87,5.06-8.49Z"/><path class="cls-1" d="M303.42,39.54l1.14,.8-.84,1.45,.07,.05c1.47-.28,2.89-.3,4.16,.59,1.92,1.35,2.01,3.11,.51,5.24l-3.54,5.02-1.39-.98,3.41-4.84c1.08-1.53,1.05-2.62-.27-3.55-.97-.68-1.96-.66-3.58-.35l-3.97,5.64-1.39-.98,5.7-8.08Z"/><path class="cls-1" d="M308.89,52.5c1.41-1.71,3.71-1.21,7.92,1.74,.81-1.07,1.03-2.37-.45-3.59-.99-.82-2.36-1.16-3.43-1.3l.21-1.31c1.2,.15,2.99,.62,4.33,1.73,2.1,1.73,2.1,3.82,.53,5.71l-3.86,4.67-1.09-.9,.74-1.13-.05-.04c-1.38-.03-2.95-.38-4.02-1.26-1.43-1.18-1.96-2.96-.83-4.33Zm5.58,4.58l1.63-1.98c-3.49-2.46-5.01-2.63-5.84-1.63-.71,.86-.21,1.86,.67,2.59,.87,.72,2.05,1.01,3.53,1.02Z"/><path class="cls-1" d="M319.51,63.11c.71-.73,1.73-.73,2.39-.1s.7,1.66,0,2.39c-.72,.75-1.73,.73-2.39,.1s-.71-1.65,0-2.39Z"/><path class="cls-1" d="M334.26,79.03l2.03,2.64,8.29-6.38-2.03-2.64,1.15-.88,5.11,6.64-1.15,.88-2.03-2.64-8.29,6.38,2.03,2.64-1.15,.88-5.11-6.64,1.15-.88Z"/><path class="cls-1" d="M348.47,87.16c1.42,.7,2.83,.7,4.12-.16l1.1-1.22-.51,1.69c-.5-.09-.99-.32-1.24-.7-.48-.72-.29-1.55,.42-2.02,.78-.52,1.67-.35,2.16,.38,.6,.9,.25,2.04-1.05,2.91-1.7,1.12-3.68,1.14-5.48,.13l.5-1.02Z"/><path class="cls-1" d="M355.11,94.06l.67,1.17-1.06,.77,.02,.04c1.05-.01,1.9,.21,2.47,1.2,.49,.85,.3,1.67-.55,2.48,1.2-.03,2.07,.18,2.64,1.17,.69,1.21,.16,2.45-1.55,3.43l-6.14,3.52-.83-1.46,6.04-3.46c.99-.57,1.34-1.14,.97-1.78-.35-.6-.97-.67-2.12-.63l-6.21,3.56-.77-1.35,6.04-3.46c.99-.57,1.36-1.11,.99-1.75-.35-.6-1.01-.74-2.14-.66l-6.21,3.56-.83-1.46,8.58-4.92Z"/><path class="cls-1" d="M360.3,119.75c2.04-.87,3.85,.63,6.23,5.19,1.21-.58,2-1.63,1.25-3.4-.5-1.19-1.56-2.11-2.45-2.74l.78-1.07c1,.69,2.37,1.93,3.05,3.52,1.06,2.5,.1,4.35-2.16,5.32l-5.58,2.37-.55-1.3,1.18-.66-.02-.06c-1.21-.66-2.44-1.69-2.99-2.97-.73-1.71-.37-3.53,1.26-4.22Zm2.84,6.63l2.36-1c-1.96-3.79-3.23-4.64-4.43-4.13-1.03,.44-1.04,1.55-.59,2.61,.44,1.03,1.36,1.84,2.67,2.53Z"/><path class="cls-1" d="M371.47,141.8l7.93-2.46,.51,1.66-7.96,2.47c-2.62,.81-3.22,2.26-2.74,3.79,.48,1.54,1.79,2.42,4.42,1.61l7.96-2.47,.49,1.58-7.93,2.46c-3.65,1.13-5.61-.23-6.38-2.73-.78-2.52,.05-4.77,3.71-5.9Z"/><path class="cls-1" d="M377.74,156.52l5.29-5.25,.48,1.84-2.81,2.68c-.5,.49-.96,.93-1.61,1.54l.02,.08c.86,.15,1.46,.27,2.13,.43l3.75,.92,.46,1.76-7.27-1.96-5.58,5.6-.49-1.86,2.96-2.85c.56-.53,1.11-1.05,1.79-1.69l-.02-.08c-.89-.17-1.62-.34-2.36-.5l-3.97-1.03-.46-1.76,7.69,2.13Z"/><path class="cls-1" d="M388.83,170.31l.35,1.47-18.77-2.42-.35-1.47,18.77,2.42Z"/><path class="cls-1" d="M380.78,177.43l8.06-2.01,.42,1.69-8.1,2.02c-2.67,.67-3.34,2.08-2.95,3.62,.39,1.57,1.66,2.52,4.32,1.85l8.1-2.02,.4,1.61-8.06,2.01c-3.71,.93-5.59-.54-6.22-3.08s.32-4.76,4.03-5.69Z"/><path class="cls-1" d="M380.36,190.4l.89,3.21,10.08-2.8-.89-3.21,1.39-.39,2.25,8.08-1.39,.39-.89-3.21-10.08,2.8,.89,3.21-1.39,.39-2.25-8.08,1.39-.39Z"/><path class="cls-1" d="M398.5,209.67l1.07,3.14c1.3,3.81-.26,6.65-4.26,8.01-4.03,1.37-7.08,.09-8.35-3.65l-1.09-3.21,12.64-4.28Zm-10.29,6.85c.98,2.88,3.32,3.69,6.52,2.61,3.18-1.08,4.45-3.1,3.47-5.99l-.47-1.39-9.98,3.38,.47,1.39Z"/><path class="cls-1" d="M394.34,223.37c3.01-1.12,5.69,.46,6.61,2.95,1,2.68-.15,4.9-2.77,5.87-.36,.13-.72,.22-.98,.28l-2.93-7.88,1.22-.45,2.58,6.94-.59-.24c2.19-.82,2.87-2.31,2.24-4.02-.64-1.73-2.49-2.74-4.8-1.88-2.4,.89-3.04,2.92-2.27,4.99,.41,1.11,1.08,1.87,1.93,2.51l-.82,.96c-.95-.69-1.89-1.7-2.45-3.19-1.04-2.8-.07-5.69,3.02-6.84Z"/><path class="cls-1" d="M395.2,236.07l1.33,.3c-.32,1.37-.31,2.82,.38,4.5,.63,1.55,1.58,2.05,2.35,1.74,.7-.28,1.04-.84,.53-3.55-.49-2.61-.16-4.13,1.21-4.69,1.47-.6,3.13,.25,4.15,2.77,.57,1.4,.59,3.03,.34,4.19l-1.31-.35c.24-1.09,.18-2.3-.29-3.48-.63-1.55-1.48-1.87-2.18-1.59-.79,.32-.81,1.25-.43,3.31,.58,3.32,.12,4.36-1.29,4.94-1.49,.61-3.32-.35-4.39-2.98-.73-1.8-.72-3.68-.41-5.11Z"/><path class="cls-1" d="M408.42,248.94l-1.86-4.21,1.25-.55,2.55,5.76-9.04,4-.69-1.55,7.79-3.45Zm4.06-2.53c.71-.31,1.42,0,1.74,.71,.31,.71,.06,1.45-.64,1.76-.73,.32-1.42,0-1.74-.71-.31-.71-.08-1.44,.64-1.76Z"/><path class="cls-1" d="M401.95,259.73c.72-.34,1.68-.17,2.69,.52l.07-.04c.03-.6,.27-1.27,1.02-1.63,.57-.27,1.4-.19,2.18,.27l.07-.04c.17-.83,.72-1.71,1.78-2.22,1.94-.93,3.97,.09,4.88,1.99,.25,.52,.38,.98,.42,1.43l1.78,3.71-1.23,.59-1.12-2.32c-.23,.61-.72,1.28-1.43,1.62-1.91,.92-3.8-.06-4.73-2-.22-.46-.38-1.07-.4-1.67-.49-.31-.94-.41-1.36-.21-.7,.33-.7,1.17-.13,2.35l.96,2.01c1.11,2.3,1.05,3.69-.45,4.41-1.67,.8-4.05-.44-5.51-3.48-1.26-2.62-1.08-4.56,.49-5.32Zm4.06,7.42c.84-.4,.75-1.2,.1-2.57l-.84-1.75c-.25-.52-.43-.99-.51-1.43-.87-.63-1.52-.68-2.03-.43-.94,.45-1.04,1.75-.11,3.66,1,2.08,2.48,2.96,3.4,2.52Zm6.45-4.95c1.25-.6,1.65-1.93,1.1-3.07-.54-1.12-1.83-1.66-3.08-1.06-1.28,.62-1.66,1.95-1.12,3.08,.55,1.14,1.82,1.67,3.1,1.05Z"/><path class="cls-1" d="M417.86,265.71l.64,1.23-1.41,.9,.04,.07c1.44,.43,2.71,1.06,3.43,2.44,1.09,2.09,.36,3.69-1.95,4.89l-5.45,2.84-.78-1.51,5.25-2.74c1.66-.86,2.13-1.85,1.39-3.28-.55-1.05-1.44-1.49-3.02-1.96l-6.12,3.19-.78-1.51,8.77-4.57Z"/><path class="cls-1" d="M418.83,278.15c2.8-1.58,5.69-.43,6.99,1.88,1.41,2.5,.62,4.86-1.81,6.23-.34,.19-.68,.33-.93,.43l-4.13-7.32,1.13-.64,3.63,6.45-.62-.14c2.04-1.15,2.48-2.73,1.58-4.32-.9-1.6-2.89-2.32-5.04-1.11-2.23,1.26-2.55,3.36-1.46,5.28,.58,1.03,1.36,1.67,2.3,2.18l-.66,1.07c-1.05-.54-2.13-1.38-2.92-2.77-1.47-2.6-.96-5.61,1.91-7.22Z"/><path class="cls-1" d="M429.77,287.36l.73,1.21-1.91,1.36,.02,.04c1.92,.06,3.56,.88,4.52,2.45,.38,.63,.62,1.21,.67,1.89l-1.44,.42c-.17-.71-.27-1.08-.68-1.74-.78-1.28-2.15-2.09-4.54-2.02l-4.94,3-.88-1.45,8.45-5.14Z"/><path class="cls-1" d="M435.74,312.8l-.04-.05-.99,.5-.78-1.1,11.82-8.39,.98,1.38-3.22,2.29-1.61,1.04,.04,.05c1.27,.2,2.48,.9,3.16,1.85,1.55,2.19,.78,4.51-1.71,6.28-2.76,1.96-5.6,1.36-6.96-.55-.57-.8-.84-2.06-.69-3.3Zm6.62,2.44c1.78-1.26,2.48-2.76,1.33-4.38-.51-.72-1.46-1.29-2.87-1.52l-4.02,2.85c-.15,1.23,.21,2.26,.62,2.84,.99,1.4,2.95,1.62,4.94,.21Z"/><path class="cls-1" d="M443.11,320.55c1.76-1.35,3.88-.35,7.33,3.47,1.03-.87,1.53-2.08,.36-3.6-.78-1.02-2.04-1.66-3.05-2.04l.49-1.23c1.14,.42,2.77,1.27,3.83,2.65,1.66,2.16,1.19,4.19-.76,5.69l-4.81,3.69-.86-1.12,.98-.93-.04-.05c-1.34-.34-2.79-1.03-3.64-2.13-1.13-1.48-1.24-3.32,.16-4.4Zm4.41,5.71l2.03-1.56c-2.85-3.18-4.29-3.69-5.33-2.9-.89,.68-.62,1.76,.08,2.67,.68,.89,1.78,1.45,3.22,1.78Z"/><path class="cls-1" d="M449.69,331.09l1.36-.12c.1,1.4,.56,2.78,1.72,4.18,1.07,1.29,2.12,1.48,2.77,.94,.58-.48,.74-1.12-.56-3.54-1.25-2.34-1.4-3.89-.26-4.83,1.22-1.01,3.06-.71,4.8,1.38,.97,1.16,1.48,2.71,1.59,3.89l-1.35,.06c-.1-1.11-.52-2.25-1.33-3.23-1.07-1.29-1.98-1.33-2.56-.85-.66,.55-.39,1.44,.59,3.29,1.55,2.99,1.44,4.12,.26,5.1-1.24,1.03-3.28,.67-5.09-1.51-1.24-1.5-1.8-3.29-1.93-4.75Z"/><path class="cls-1" d="M460.45,338.23c2.39-2.15,5.46-1.66,7.24,.32,1.91,2.13,1.66,4.61-.42,6.48-.29,.26-.59,.47-.81,.62l-5.62-6.25,.97-.87,4.95,5.51h-.64c1.74-1.57,1.82-3.21,.61-4.57-1.23-1.37-3.33-1.63-5.16,.01-1.91,1.71-1.75,3.83-.28,5.47,.79,.88,1.69,1.34,2.72,1.63l-.41,1.19c-1.14-.29-2.38-.88-3.45-2.07-2-2.22-2.16-5.26,.29-7.47Z"/><path class="cls-1" d="M468.64,347.33c2.3-2.24,5.23-2.09,6.87-.41,.83,.85,1.13,1.84,1.18,3.02l.03,.03,1.24-1.32,2.73-2.65,1.18,1.22-10.38,10.1-.97-1,.83-1.01-.04-.04c-1.17,0-2.5-.36-3.38-1.25-1.8-1.85-1.66-4.38,.71-6.68Zm3.56,6.92l3.53-3.43c-.03-1.23-.4-2.04-1-2.65-1.2-1.23-3.25-1.18-4.87,.4-1.69,1.65-1.92,3.42-.66,4.72,.68,.7,1.68,1.02,2.99,.97Z"/><path class="cls-1" d="M492.7,365.4l-3.47-3.02,.89-1.03,4.75,4.14-6.49,7.46-1.28-1.11,5.59-6.43Zm2.6-4.02c.51-.58,1.29-.61,1.87-.1,.59,.51,.67,1.29,.16,1.87-.52,.6-1.29,.61-1.87,.1-.59-.51-.68-1.27-.16-1.87Z"/><path class="cls-1" d="M499.43,369.34l1.09,.87-.93,1.39,.06,.05c1.49-.19,2.9-.13,4.12,.84,1.84,1.47,1.82,3.22,.2,5.26l-3.83,4.8-1.33-1.06,3.69-4.63c1.17-1.46,1.2-2.55-.06-3.56-.93-.74-1.92-.78-3.55-.57l-4.3,5.39-1.33-1.06,6.17-7.73Z"/><path class="cls-1" d="M523.57,382.98l1.63,1.09-3.64,13.62-1.53-1.02,2.21-7.48c.43-1.5,.87-2.97,1.39-4.48l-.07-.05c-1.21,1.05-2.38,2.03-3.6,3.01l-6.08,4.89-1.46-.97,11.16-8.61Zm-6.16,5.41l5.12,3.41-.77,1.15-5.12-3.41,.77-1.15Z"/><path class="cls-1" d="M531.54,386.82l1.45,.88-2.04,3.38-1.3,1.95,.05,.03c1.43-.42,2.86-.53,4.17,.26,2.01,1.22,2.22,2.96,.88,5.19l-3.18,5.26-1.45-.88,3.06-5.07c.97-1.6,.86-2.69-.52-3.53-1.01-.61-2-.52-3.59-.11l-3.57,5.9-1.45-.88,7.5-12.4Z"/><path class="cls-1" d="M539.01,396.66l1.18,.65-.5,1.21,.04,.02c.89-.56,1.73-.82,2.73-.27,.86,.47,1.13,1.27,.83,2.4,1.01-.65,1.86-.93,2.86-.38,1.22,.67,1.42,2.01,.48,3.74l-3.39,6.21-1.47-.8,3.33-6.11c.55-1,.54-1.67-.1-2.03-.61-.33-1.18-.06-2.13,.57l-3.43,6.28-1.36-.75,3.33-6.11c.55-1,.58-1.65-.07-2.01-.61-.33-1.25-.1-2.17,.55l-3.43,6.28-1.47-.8,4.74-8.68Z"/><path class="cls-1" d="M547.77,406.98c1.42-2.89,4.44-3.58,6.83-2.41,2.57,1.26,3.26,3.66,2.03,6.16-.17,.35-.37,.66-.52,.88l-7.54-3.7,.57-1.17,6.64,3.26-.59,.23c1.03-2.1,.49-3.65-1.14-4.46-1.65-.81-3.69-.27-4.78,1.94-1.13,2.3-.2,4.21,1.79,5.18,1.06,.52,2.07,.61,3.13,.49l.07,1.26c-1.17,.15-2.54,.07-3.97-.63-2.68-1.31-3.97-4.08-2.52-7.04Z"/><path class="cls-1" d="M558.79,412.37c1.29-2.95,4.05-3.92,6.21-2.97,1.09,.47,1.74,1.27,2.23,2.35l.04,.02,.65-1.69,1.52-3.49,1.56,.68-5.8,13.28-1.27-.56,.39-1.25-.06-.02c-1.08,.44-2.46,.62-3.6,.12-2.36-1.03-3.18-3.43-1.87-6.45Zm5.91,5.07l1.97-4.51c-.49-1.12-1.14-1.74-1.92-2.08-1.57-.69-3.45,.14-4.36,2.21-.95,2.16-.5,3.89,1.17,4.62,.9,.39,1.94,.31,3.13-.23Z"/><path class="cls-1" d="M569.74,419.64c.8-2.07,3.13-2.32,8.07-.86,.42-1.27,.22-2.57-1.57-3.26-1.2-.46-2.61-.35-3.67-.15l-.22-1.31c1.19-.24,3.03-.36,4.65,.27,2.54,.98,3.2,2.96,2.32,5.25l-2.18,5.66-1.32-.51,.35-1.3-.06-.02c-1.32,.41-2.92,.58-4.22,.08-1.74-.67-2.8-2.19-2.16-3.84Zm6.75,2.58l.92-2.39c-4.09-1.23-5.59-.91-6.06,.3-.4,1.04,.39,1.83,1.46,2.24,1.05,.41,2.27,.31,3.68-.15Z"/><path class="cls-1" d="M582.74,426.05l-.06-.02-.5,.99-1.28-.43,4.61-13.73,1.61,.54-1.25,3.74-.69,1.79,.06,.02c1.14-.58,2.54-.74,3.64-.37,2.54,.85,3.29,3.18,2.32,6.08-1.07,3.2-3.72,4.4-5.95,3.65-.93-.31-1.89-1.17-2.5-2.25Zm6.79-1.93c.69-2.06,.38-3.69-1.5-4.32-.83-.28-1.95-.18-3.22,.46l-1.57,4.67c.61,1.08,1.5,1.7,2.18,1.93,1.63,.55,3.34-.43,4.11-2.74Z"/><path class="cls-1" d="M593.38,428c.61-2.13,2.92-2.59,7.96-1.56,.31-1.31,0-2.58-1.85-3.11-1.24-.36-2.62-.12-3.67,.17l-.33-1.28c1.16-.34,2.99-.62,4.66-.14,2.61,.75,3.45,2.67,2.77,5.03l-1.68,5.82-1.36-.39,.23-1.33-.06-.02c-1.28,.52-2.86,.83-4.19,.44-1.79-.51-2.98-1.94-2.49-3.64Zm6.94,1.98l.71-2.46c-4.18-.86-5.65-.42-6.01,.83-.31,1.08,.55,1.79,1.65,2.11,1.08,.31,2.29,.11,3.65-.47Z"/><path class="cls-1" d="M605.57,428.99c.75-3.12,3.31-4.56,5.6-4,1.15,.28,1.94,.95,2.61,1.93h.04l.35-1.77,.89-3.7,1.65,.4-3.4,14.08-1.35-.33,.17-1.3h-.06c-.99,.6-2.31,1.02-3.52,.72-2.5-.61-3.74-2.83-2.96-6.03Zm6.7,3.96l1.16-4.79c-.68-1.02-1.42-1.52-2.26-1.72-1.67-.4-3.38,.73-3.91,2.93-.55,2.29,.19,3.92,1.96,4.35,.95,.23,1.96-.03,3.05-.77Z"/><path class="cls-1" d="M620.21,435.86c.2-1,1.06-1.55,1.96-1.38s1.49,1.02,1.29,2.02c-.2,1.02-1.06,1.55-1.96,1.38-.9-.18-1.49-1-1.29-2.02Z"/><path class="cls-1" d="M630.25,432.49c.65-4.24,3.54-6.45,7-5.92,1.6,.25,2.73,1.2,3.39,2.17l-1.13,.92c-.58-.83-1.37-1.43-2.49-1.6-2.53-.39-4.5,1.39-5,4.67-.51,3.32,.83,5.64,3.35,6.03,1.21,.19,2.22-.19,3.2-.99l.81,1.18c-1.22,1.05-2.64,1.55-4.4,1.28-3.28-.5-5.39-3.42-4.73-7.73Z"/><path class="cls-1" d="M642.37,437.25l.68-6.11,1.69,.19-.66,5.88c-.21,1.84,.35,2.8,1.97,2.98,1.14,.13,2.03-.3,3.27-1.46l.76-6.81,1.69,.19-1.1,9.83-1.4-.16,.05-1.73h-.08c-1.12,1.03-2.37,1.71-3.9,1.54-2.34-.26-3.26-1.76-2.97-4.34Z"/><path class="cls-1" d="M656.59,432.53l1.41,.1v2.35h.04c1.15-1.53,2.77-2.39,4.61-2.26,.73,.05,1.34,.2,1.93,.54l-.49,1.41c-.68-.27-1.04-.4-1.81-.46-1.49-.11-2.95,.54-4.28,2.53l-.41,5.76-1.69-.12,.7-9.86Z"/><path class="cls-1" d="M668.8,433.28l1.41,.04,.09,2.34h.04c1.09-1.57,2.68-2.5,4.52-2.44,.74,.02,1.35,.14,1.95,.47l-.43,1.43c-.69-.25-1.05-.36-1.83-.38-1.49-.05-2.93,.66-4.18,2.7l-.18,5.78-1.7-.05,.31-9.88Z"/><path class="cls-1" d="M679.47,438.48c-.02-3.21,2.37-5.18,5.03-5.2,2.86-.02,4.55,1.82,4.57,4.6,0,.39-.04,.75-.07,1.02l-8.4,.06v-1.3l7.39-.06-.43,.47c-.02-2.34-1.19-3.49-3.01-3.48-1.84,.01-3.42,1.41-3.41,3.87,.02,2.56,1.71,3.85,3.91,3.83,1.19,0,2.12-.38,3.02-.96l.62,1.09c-.98,.66-2.24,1.2-3.83,1.21-2.99,.02-5.37-1.87-5.4-5.17Z"/><path class="cls-1" d="M692.16,433.39l1.39-.06,.22,1.66h.08c.99-1.13,2.1-2.01,3.65-2.08,2.35-.11,3.5,1.23,3.61,3.83l.28,6.14-1.7,.08-.27-5.92c-.08-1.87-.78-2.71-2.39-2.64-1.19,.05-1.96,.68-3.05,1.91l.31,6.89-1.7,.08-.45-9.88Z"/><path class="cls-1" d="M706.81,438.63l-.38-4.66-2.81,.23-.1-1.26,2.87-.33-.03-3.18,1.41-.11,.26,3.16,4.85-.39,.11,1.36-4.85,.39,.38,4.68c.14,1.76,.81,2.63,2.72,2.47,.92-.07,1.64-.32,2.33-.64l.47,1.21c-.87,.4-1.81,.74-3.05,.84-2.89,.23-3.97-1.33-4.16-3.77Z"/><path class="cls-1" d="M719.64,437.95l-1.12-9.74-3.49,.4-.16-1.35,5.18-.6,1.3,11.22c.16,1.42,1,1.93,2.18,1.8,.57-.07,1.16-.28,1.8-.66l.57,1.2c-.87,.49-1.5,.77-2.57,.89-2.11,.24-3.41-.83-3.68-3.16Z"/><path class="cls-1" d="M729.07,444.23l.14-1.38c.27,.04,.61,.05,.91,0,1.38-.21,2.07-1.2,2.38-2.48l.17-.77-6.04-9.12,1.7-.25,3.2,5.04c.51,.81,1.09,1.77,1.64,2.66h.08c.21-.99,.43-2.07,.63-3.01l1.31-5.71,1.62-.24-2.76,11.24c-.44,2.04-1.41,3.69-3.65,4.03-.46,.07-.96,.06-1.32,0Z"/><path class="cls-1" d="M751.11,426.42l2.8-.71,5.66-1.22,.29,1.33-8.48,1.83-.27-1.23Zm2.58-1.51c-.51-2.35,.39-4.18,3.07-4.76,.96-.21,1.92-.23,2.92-.05l-.11,1.31c-.87-.17-1.52-.15-2.36,.03-1.74,.38-2.23,1.5-1.89,3.05l2.28,10.54-1.64,.35-2.27-10.48Z"/><path class="cls-1" d="M763.51,423.54l1.37-.34,.72,2.23h.04c.62-1.82,1.9-3.15,3.68-3.59,.71-.18,1.33-.23,2-.08l-.03,1.5c-.73-.05-1.11-.06-1.87,.13-1.45,.36-2.64,1.43-3.29,3.73l1.4,5.61-1.65,.41-2.39-9.6Z"/><path class="cls-1" d="M774.82,425.76c-.87-3.1,.93-5.63,3.49-6.35,2.76-.77,4.87,.56,5.62,3.24,.1,.37,.16,.74,.2,1l-8.09,2.27-.35-1.25,7.12-2-.29,.57c-.63-2.25-2.07-3.05-3.82-2.56-1.77,.5-2.93,2.26-2.27,4.63,.69,2.47,2.66,3.27,4.78,2.67,1.14-.32,1.95-.93,2.66-1.72l.89,.89c-.77,.89-1.85,1.74-3.38,2.17-2.87,.81-5.67-.39-6.56-3.57Z"/><path class="cls-1" d="M786.39,422.47c-.96-3.07,.76-5.65,3.3-6.44,2.73-.85,4.88,.42,5.71,3.08,.12,.37,.18,.73,.22,1l-8.02,2.5-.39-1.24,7.07-2.2-.27,.58c-.7-2.23-2.15-2.99-3.89-2.45-1.76,.55-2.87,2.34-2.13,4.69,.76,2.45,2.75,3.19,4.86,2.53,1.13-.35,1.92-.98,2.61-1.79l.91,.87c-.74,.91-1.8,1.8-3.32,2.27-2.85,.89-5.68-.23-6.66-3.38Z"/><path class="cls-1" d="M801.85,419.23l-3.18-9.27-3.33,1.14-.44-1.29,4.93-1.69,3.67,10.68c.46,1.35,1.4,1.67,2.52,1.29,.54-.19,1.08-.52,1.62-1.03l.82,1.05c-.75,.66-1.3,1.07-2.32,1.42-2.01,.69-3.51-.09-4.27-2.3Z"/><path class="cls-1" d="M810.34,417.07c-.78-2.08,.8-3.82,5.46-6-.53-1.24-1.54-2.07-3.34-1.4-1.21,.45-2.18,1.47-2.84,2.32l-1.03-.83c.73-.97,2.03-2.28,3.66-2.89,2.55-.95,4.35,.09,5.22,2.39l2.12,5.68-1.32,.49-.6-1.21-.06,.02c-.72,1.18-1.8,2.37-3.1,2.85-1.74,.65-3.54,.22-4.16-1.44Zm6.75-2.55l-.9-2.4c-3.87,1.79-4.78,3.03-4.33,4.25,.39,1.05,1.51,1.11,2.58,.71,1.05-.39,1.9-1.28,2.65-2.55Z"/><path class="cls-1" d="M819.17,405.9l1.29-.52,.76,1.49,.08-.03c.56-1.39,1.31-2.59,2.75-3.17,2.18-.88,3.7,0,4.68,2.41l2.3,5.7-1.57,.64-2.22-5.49c-.7-1.74-1.63-2.3-3.13-1.7-1.1,.44-1.62,1.29-2.24,2.81l2.58,6.39-1.57,.64-3.7-9.17Z"/><path class="cls-1" d="M831.95,406.05c-1.32-3.04,.26-5.79,3.02-6.98,1.48-.64,2.83-.52,3.9-.11l-.34,1.32c-1.03-.31-1.98-.36-2.94,.06-2.1,.91-2.94,2.94-2.04,5.03,.9,2.07,2.92,2.83,5.01,1.93,1.13-.49,1.85-1.4,2.32-2.36l1.13,.71c-.62,1.33-1.66,2.4-3.01,2.99-2.85,1.24-5.74,.43-7.05-2.58Z"/><path class="cls-1" d="M842.77,401.28c-1.35-2.92,.02-5.7,2.43-6.82,2.6-1.2,4.9-.23,6.07,2.3,.16,.35,.28,.7,.35,.96l-7.63,3.53-.55-1.18,6.72-3.11-.19,.61c-.98-2.12-2.53-2.69-4.18-1.92-1.67,.77-2.54,2.7-1.5,4.93,1.08,2.33,3.15,2.8,5.15,1.88,1.08-.5,1.78-1.23,2.35-2.12l1.02,.74c-.62,1-1.55,2.02-2.99,2.69-2.71,1.25-5.67,.51-7.05-2.48Z"/></g></g></svg>