<?xml version="1.0" encoding="utf-8"?>
<!-- Generator: Adobe Illustrator 27.5.0, SVG Export Plug-In . SVG Version: 6.00 Build 0)  -->
<svg version="1.1" xmlns="http://www.w3.org/2000/svg" xmlns:xlink="http://www.w3.org/1999/xlink" x="0px" y="0px"
	 viewBox="0 0 500 500" style="enable-background:new 0 0 500 500;" xml:space="preserve">
<g id="Floor">
	<path id="Floor_9_" style="fill:#F5F5F5;" d="M88.256,453.626c-89.882-51.894-89.882-136.029,0-187.922s235.608-51.893,325.49,0
		s89.882,136.028,0,187.922C323.864,505.52,178.137,505.52,88.256,453.626z"/>
</g>
<g id="Shadows">
	<path id="Shadow_9_" style="fill:#E0E0E0;" d="M318.427,292.571l-4.945-2.855c-3.354-1.937-8.792-1.937-12.146,0L40.034,440.579
		c-3.34,1.928-3.34,5.084,0,7.012l4.945,2.855c3.34,1.928,8.806,1.928,12.146,0l79.38-45.83l35.321,20.393
		c9.103,5.255,23.999,5.255,33.102,0l60.969-35.228c7.773-4.488,7.773-11.832,0-16.32l-37.737-21.789l90.269-52.089
		C321.767,297.655,321.767,294.5,318.427,292.571z"/>
	<ellipse id="Shadow_19_" style="fill:#E0E0E0;" cx="381.468" cy="434.213" rx="61.27" ry="35.374"/>
</g>
<g id="Device">
	<g id="Monitor_1_">
		<g id="XMLID_944_">
			<g id="XMLID_949_">
				<path id="XMLID_950_" style="fill:#F5F5F5;" d="M206.924,415.265l46.574-26.929c4.8-2.772,7.2-6.404,7.201-10.036
					c0-3.633,0.02-6.478,0.02-6.478l-43.825-24.874c-2.56-1.478-4.635-5.074-4.635-8.031V297.38l-81.347,47.006l-0.002,41.536
					c0,2.956,2.075,6.552,4.636,8.029l36.608,21.313C181.756,420.808,197.323,420.808,206.924,415.265z"/>
			</g>
			<path id="XMLID_948_" style="opacity:0.15;" d="M150.442,396.09v6.45l-14.909-8.591c-2.543-1.473-4.631-5.059-4.631-8.03v-41.53
				l15.498-8.94c0.321,3.935,0.668,8.004,0.989,11.965l-10.867,6.29v28.977c0,2.971,2.061,6.558,4.631,8.03L150.442,396.09z"/>
			<path id="XMLID_947_" style="fill:#E6E6E6;" d="M136.521,382.691c0,2.957,2.075,6.552,4.636,8.03l30.991,18.068
				c9.602,5.544,25.17,5.545,34.773,0.004l46.596-26.927c9.603-5.541,9.604-14.527,0.002-20.071l-31.012-18.083
				c-2.561-1.479-4.636-5.074-4.636-8.03l0-28.982l-81.349,47.005V382.691z"/>
			<path id="XMLID_946_" style="opacity:0.15;" d="M231.949,349.172v-0.007l-9.442-5.451c-2.561-1.479-4.636-5.074-4.636-8.03
				v-28.982l-81.349,47.005v28.984c0,2.957,2.076,6.552,4.636,8.03l9.28,5.357L231.949,349.172z"/>
		</g>
		<path id="XMLID_943_" style="fill:#455A64;" d="M39.617,425.791c3.002,1.733,8.031,1.64,11.231-0.207
			c39.994-23.09,227.652-131.433,267.639-154.518c3.201-1.848,5.794-6.341,5.794-10.036V25.382c0-3.696-2.434-8.097-5.436-9.83
			c-3.002-1.733-8.031-1.64-11.231,0.208L39.98,170.278c-3.2,1.848-5.795,6.342-5.795,10.037l-0.004,235.645
			C34.181,419.657,36.615,424.058,39.617,425.791z"/>
		<path id="XMLID_942_" style="fill:#37474F;" d="M50.85,425.576l267.637-154.517c3.201-1.848,5.795-6.342,5.795-10.038V25.375
			c0-3.696-2.594-5.194-5.795-3.346L50.855,176.548c-3.201,1.848-5.795,6.342-5.795,10.038l-0.004,235.645
			C45.055,425.926,47.65,427.424,50.85,425.576z"/>
		<path style="fill:#EBEBEB;" d="M45.055,410.706l-0.001,11.524c0,3.695,2.595,5.193,5.795,3.346l267.637-154.517
			c3.201-1.848,5.796-6.342,5.796-10.037v-11.527L45.055,410.706z"/>
		<path id="XMLID_939_" style="fill:#263238;" d="M52.713,392.366l0.003-203.198c0-2.272,1.595-5.036,3.563-6.172L313.051,34.748
			c1.968-1.136,3.564-0.215,3.564,2.058l0.01,203.202c0,2.273-1.595,5.036-3.564,6.173L56.277,394.424
			C54.309,395.56,52.713,394.639,52.713,392.366z"/>
		<path style="fill:#263238;" d="M35.891,174.589l10.868,6.263c-1.045,1.82-1.686,3.881-1.713,5.728V403.37l0.009,18.861
			c0,3.372,2.282,5.257,5.793,3.353c-3.508,2.04-8.501,1.787-11.231,0.207c-2.998-1.74-5.438-5.41-5.438-9.129v-19.582V180.317
			C34.179,178.47,34.848,176.409,35.891,174.589z"/>
	</g>
</g>
<g id="Windows">
	<g id="Window_10_">
		<g>
			<path style="fill:#455A64;" d="M60.238,384.124c-0.326,0-0.652-0.086-0.949-0.257c-0.595-0.344-0.951-0.959-0.951-1.646
				l0.002-192.634l0.028-0.08c0.066-0.199,0.215-0.457,0.354-0.612l0.129-0.104L308.64,44.379c0.594-0.344,1.305-0.345,1.901-0.001
				c0.594,0.344,0.95,0.959,0.95,1.646l0.007,192.639l-0.027,0.081c-0.065,0.196-0.212,0.451-0.35,0.605l-0.13,0.107L61.188,383.866
				C60.89,384.038,60.564,384.124,60.238,384.124z M59.383,189.775l-0.002,192.446c0,0.31,0.16,0.587,0.429,0.742
				c0.267,0.155,0.586,0.155,0.855,0l249.713-144.358c0.026-0.039,0.054-0.088,0.075-0.13l-0.007-192.451
				c0-0.31-0.16-0.587-0.428-0.742c-0.27-0.156-0.589-0.154-0.857,0L59.46,189.642C59.433,189.682,59.405,189.732,59.383,189.775z"
				/>
		</g>
		<g>
			<path style="fill:#37474F;" d="M310.97,63.956l0-17.932c0-1.061-1.149-1.725-2.068-1.194L59.11,189.242
				c-0.092,0.103-0.205,0.3-0.249,0.43l-0.003,20.035L310.97,63.956z"/>
			<g>
				<g>
					<path style="fill:#BA68C8;" d="M64.652,189.224l1.527-0.882c0.749-0.432,1.356-0.082,1.356,0.783v1.765
						c0,0.865-0.607,1.916-1.356,2.349l-1.527,0.882c-0.749,0.432-1.356,0.082-1.356-0.783v-1.765
						C63.296,190.708,63.903,189.657,64.652,189.224z"/>
				</g>
				<g>
					<path style="fill:#455A64;" d="M64.652,198.135l1.527-0.882c0.749-0.432,1.356-0.082,1.356,0.783v1.765
						c0,0.865-0.607,1.917-1.356,2.349l-1.527,0.882c-0.749,0.432-1.356,0.082-1.356-0.783v-1.765
						C63.296,199.619,63.903,198.567,64.652,198.135z"/>
				</g>
				<g>
					<path style="fill:#455A64;" d="M94.334,180.997l1.527-0.882c0.749-0.433,1.356-0.082,1.356,0.783v1.765
						c0,0.865-0.607,1.916-1.356,2.349l-1.527,0.882c-0.749,0.432-1.356,0.082-1.356-0.783v-1.765
						C92.978,182.482,93.585,181.43,94.334,180.997z"/>
				</g>
				<g>
					<path style="fill:#263238;" d="M102.815,176.101l1.527-0.882c0.749-0.432,1.356-0.082,1.356,0.783v1.765
						c0,0.865-0.607,1.917-1.356,2.349l-1.527,0.882c-0.749,0.432-1.356,0.082-1.356-0.783v-1.765
						C101.459,177.585,102.066,176.534,102.815,176.101z"/>
				</g>
				<g>
					<path style="fill:#455A64;" d="M111.296,171.205l1.527-0.882c0.749-0.432,1.356-0.082,1.356,0.783v1.764
						c0,0.865-0.607,1.917-1.356,2.349l-1.527,0.882c-0.749,0.433-1.356,0.082-1.356-0.783v-1.765
						C109.94,172.689,110.547,171.637,111.296,171.205z"/>
				</g>
				<g>
					<g>
						<path style="fill:#455A64;" d="M71.776,188.082c-0.179,0-0.356-0.094-0.452-0.261c-0.145-0.25-0.059-0.569,0.191-0.713
							l12.72-7.345c0.249-0.146,0.569-0.059,0.713,0.191c0.145,0.25,0.059,0.569-0.191,0.713l-12.72,7.345
							C71.955,188.059,71.865,188.082,71.776,188.082z"/>
					</g>
					<g>
						<path style="fill:#455A64;" d="M109.94,166.048c-0.179,0-0.356-0.094-0.452-0.261c-0.145-0.25-0.059-0.569,0.191-0.713
							l12.72-7.345c0.249-0.146,0.569-0.06,0.713,0.191c0.145,0.25,0.059,0.569-0.191,0.712l-12.72,7.345
							C110.118,166.025,110.028,166.048,109.94,166.048z"/>
					</g>
					<g>
						<path style="fill:#455A64;" d="M165.064,134.221c-0.179,0-0.356-0.094-0.452-0.261c-0.145-0.25-0.059-0.569,0.191-0.713
							l12.72-7.344c0.248-0.145,0.569-0.06,0.713,0.191c0.145,0.25,0.059,0.569-0.191,0.713l-12.721,7.344
							C165.243,134.199,165.153,134.221,165.064,134.221z"/>
					</g>
					<g>
						<path style="fill:#455A64;" d="M92.979,175.84c-0.179,0-0.356-0.094-0.452-0.261c-0.145-0.25-0.059-0.569,0.191-0.713
							l8.481-4.896c0.249-0.147,0.569-0.06,0.712,0.191c0.145,0.25,0.059,0.569-0.191,0.713l-8.481,4.896
							C93.157,175.818,93.067,175.84,92.979,175.84z"/>
					</g>
					<g>
						<path style="fill:#455A64;" d="M131.141,153.807c-0.179,0-0.356-0.094-0.452-0.261c-0.145-0.25-0.059-0.569,0.191-0.713
							l8.482-4.896c0.25-0.145,0.569-0.059,0.713,0.191c0.145,0.25,0.059,0.569-0.191,0.713l-8.482,4.896
							C131.319,153.784,131.23,153.807,131.141,153.807z"/>
					</g>
					<g>
						<path style="fill:#455A64;" d="M148.103,144.014c-0.18,0-0.356-0.094-0.452-0.261c-0.145-0.25-0.059-0.569,0.191-0.713
							l8.481-4.896c0.249-0.147,0.569-0.059,0.713,0.191c0.145,0.25,0.059,0.569-0.191,0.713l-8.48,4.896
							C148.281,143.991,148.192,144.014,148.103,144.014z"/>
					</g>
					<g>
						<path style="fill:#455A64;" d="M186.266,121.981c-0.18,0-0.356-0.094-0.452-0.261c-0.145-0.25-0.059-0.569,0.191-0.713
							l8.481-4.896c0.249-0.146,0.569-0.06,0.712,0.191c0.145,0.25,0.059,0.569-0.191,0.713l-8.481,4.896
							C186.444,121.959,186.354,121.981,186.266,121.981z"/>
					</g>
					<g>
						<path style="fill:#455A64;" d="M203.227,112.188c-0.179,0-0.356-0.094-0.452-0.261c-0.145-0.25-0.059-0.569,0.191-0.713
							l4.241-2.449c0.249-0.145,0.569-0.06,0.713,0.191c0.145,0.25,0.059,0.569-0.191,0.713l-4.241,2.449
							C203.405,112.166,203.315,112.188,203.227,112.188z"/>
					</g>
					<g>
						<path style="fill:#455A64;" d="M215.948,104.843c-0.179,0-0.356-0.094-0.452-0.261c-0.145-0.25-0.059-0.569,0.191-0.713
							l12.72-7.344c0.248-0.145,0.569-0.059,0.713,0.191c0.145,0.25,0.059,0.569-0.191,0.713l-12.72,7.344
							C216.127,104.821,216.037,104.843,215.948,104.843z"/>
					</g>
				</g>
				<g>
					<path style="fill:#263238;" d="M72.681,193.023l10.913-6.301c0.499-0.288,0.904-0.055,0.904,0.522v2.809
						c0,0.577-0.405,1.278-0.904,1.566l-10.913,6.301c-0.499,0.288-0.904,0.055-0.904-0.522v-2.809
						C71.777,194.012,72.182,193.311,72.681,193.023z"/>
				</g>
				<g>
					<path style="fill:#263238;" d="M119.324,166.048l10.913-6.301c0.499-0.288,0.904-0.055,0.904,0.522v2.809
						c0,0.577-0.405,1.278-0.904,1.566l-10.913,6.301c-0.499,0.288-0.904,0.054-0.904-0.522v-2.809
						C118.42,167.037,118.825,166.336,119.324,166.048z"/>
				</g>
				<g>
					<path style="fill:#263238;" d="M161.728,141.566l10.913-6.301c0.499-0.288,0.904-0.055,0.904,0.522v2.809
						c0,0.577-0.405,1.278-0.904,1.566l-10.913,6.301c-0.499,0.288-0.904,0.055-0.904-0.522v-2.809
						C160.824,142.555,161.229,141.854,161.728,141.566z"/>
				</g>
				<g>
					<path style="fill:#263238;" d="M199.891,119.533l10.913-6.301c0.499-0.288,0.904-0.055,0.904,0.522v2.809
						c0,0.576-0.405,1.278-0.904,1.566l-10.913,6.3c-0.499,0.288-0.904,0.055-0.904-0.522v-2.809
						C198.987,120.522,199.391,119.821,199.891,119.533z"/>
				</g>
				<g>
					<path style="fill:#455A64;" d="M139.622,157.032c-0.18,0-0.356-0.094-0.452-0.261c-0.145-0.25-0.059-0.569,0.191-0.712
						l16.96-9.794c0.25-0.145,0.57-0.059,0.713,0.191c0.145,0.25,0.059,0.569-0.191,0.713l-16.96,9.794
						C139.801,157.01,139.711,157.032,139.622,157.032z"/>
				</g>
				<g>
					<path style="fill:#455A64;" d="M182.041,132.668c-0.179,0-0.356-0.094-0.452-0.261c-0.145-0.25-0.059-0.569,0.191-0.712
						l11.367-6.563c0.248-0.146,0.569-0.06,0.713,0.191c0.145,0.25,0.059,0.569-0.191,0.713l-11.367,6.563
						C182.219,132.645,182.13,132.668,182.041,132.668z"/>
				</g>
			</g>
		</g>
		<g id="XMLID_930_">
			<path id="XMLID_938_" style="fill:#E0E0E0;" d="M306.916,49.594c1.034-0.597,1.871-0.113,1.871,1.08
				c0,1.194-0.838,2.645-1.871,3.241c-1.034,0.597-1.871,0.113-1.871-1.081C305.044,51.641,305.882,50.19,306.916,49.594z"/>
			<path id="XMLID_937_" style="fill:#263238;" d="M300.178,53.478c1.034-0.597,1.871-0.113,1.871,1.081
				c0,1.193-0.838,2.645-1.871,3.241c-1.034,0.597-1.871,0.113-1.871-1.081C298.307,55.526,299.145,54.075,300.178,53.478z"/>
			<path id="XMLID_935_" style="fill:#263238;" d="M293.441,57.362c1.034-0.597,1.871-0.113,1.871,1.081
				c0,1.194-0.838,2.645-1.871,3.241c-1.034,0.597-1.871,0.113-1.871-1.08C291.57,59.41,292.408,57.959,293.441,57.362z"/>
		</g>
	</g>
	<g id="Toolbar">
		<path style="fill:#455A64;" d="M91.658,205.841c-0.234-0.135-0.558-0.116-0.915,0.091l-21.703,12.53
			c-0.715,0.413-1.295,1.417-1.295,2.243v140.581c0,0.404,0.139,0.691,0.365,0.83c0.235,0.145,4.018,2.317,4.249,2.453
			c0.235,0.139,0.561,0.121,0.921-0.087l21.703-12.53c0.715-0.413,1.295-1.417,1.295-2.243V209.127c0-0.414-0.146-0.704-0.381-0.839
			C95.662,208.154,91.892,205.976,91.658,205.841z"/>
		<path style="fill:#37474F;" d="M71.985,228.013l0.376-6.13l-4.24-2.448c-0.232,0.404-0.377,0.859-0.377,1.27v140.581
			c0,0.404,0.139,0.691,0.365,0.83c0.235,0.145,4.018,2.317,4.249,2.453c0.235,0.139,0.561,0.121,0.921-0.087l0,0l-1.295-0.748
			L71.985,228.013z"/>
		<path id="XMLID_928_" style="fill:#455A64;" d="M71.985,223.153v140.581c0,0.826,0.58,1.16,1.295,0.747l21.703-12.53
			c0.715-0.413,1.295-1.417,1.295-2.243V209.127c0-0.826-0.58-1.16-1.295-0.747L73.28,220.91
			C72.565,221.323,71.985,222.327,71.985,223.153z"/>
		<path style="fill:#37474F;" d="M94.983,208.38L73.28,220.91c-0.715,0.413-1.295,1.417-1.295,2.243v4.86l24.292-14.025v-4.86
			C96.277,208.301,95.698,207.967,94.983,208.38z"/>
		<g id="XMLID_670_" style="opacity:0.2;">
			<path id="XMLID_921_" style="fill:#FFFFFF;" d="M75.539,231.956l6.09-3.516c0.456-0.263,0.825-0.05,0.825,0.476l0.001,7.034
				c0,0.526-0.369,1.166-0.825,1.429l-6.091,3.518c-0.456,0.263-0.825,0.05-0.825-0.476l0-7.035
				C74.714,232.859,75.084,232.219,75.539,231.956z"/>
			<path id="XMLID_909_" style="fill:#FFFFFF;" d="M86.624,225.559l6.09-3.517c0.456-0.263,0.825-0.05,0.825,0.476l0.001,7.034
				c0,0.526-0.369,1.166-0.825,1.429l-6.091,3.518c-0.456,0.263-0.825,0.05-0.825-0.476l-0.001-7.035
				C85.799,226.462,86.168,225.822,86.624,225.559z"/>
			<path id="XMLID_907_" style="fill:#FFFFFF;" d="M75.539,244.51l6.09-3.517c0.456-0.263,0.825-0.05,0.825,0.476l0.001,7.033
				c0,0.526-0.369,1.166-0.825,1.429l-6.091,3.518c-0.456,0.263-0.825,0.05-0.825-0.476l0-7.035
				C74.714,245.413,75.084,244.773,75.539,244.51z"/>
			<path id="XMLID_906_" style="fill:#FFFFFF;" d="M86.624,238.113l6.09-3.516c0.456-0.263,0.825-0.05,0.825,0.476l0.001,7.034
				c0,0.526-0.369,1.166-0.825,1.429l-6.091,3.518c-0.456,0.263-0.825,0.05-0.825-0.476l-0.001-7.035
				C85.799,239.016,86.168,238.376,86.624,238.113z"/>
			<path id="XMLID_903_" style="fill:#FFFFFF;" d="M75.539,257.064l6.09-3.516c0.456-0.263,0.825-0.05,0.825,0.476l0.001,7.033
				c0,0.526-0.369,1.166-0.825,1.429l-6.091,3.518c-0.456,0.263-0.825,0.05-0.825-0.476l0-7.035
				C74.714,257.967,75.084,257.327,75.539,257.064z"/>
			<path id="XMLID_902_" style="fill:#FFFFFF;" d="M86.624,250.667l6.09-3.517c0.456-0.263,0.825-0.05,0.825,0.477l0.001,7.033
				c0,0.526-0.369,1.166-0.825,1.43l-6.091,3.518c-0.456,0.263-0.825,0.05-0.825-0.476l-0.001-7.035
				C85.799,251.571,86.168,250.93,86.624,250.667z"/>
			<path id="XMLID_901_" style="fill:#FFFFFF;" d="M75.539,269.618l6.09-3.517c0.456-0.263,0.825-0.05,0.825,0.477l0.001,7.033
				c0,0.526-0.369,1.166-0.825,1.43l-6.091,3.518c-0.456,0.263-0.825,0.05-0.825-0.477l0-7.035
				C74.714,270.521,75.084,269.881,75.539,269.618z"/>
			<path id="XMLID_900_" style="fill:#FFFFFF;" d="M86.624,263.221l6.09-3.517c0.456-0.263,0.825-0.05,0.825,0.477l0.001,7.033
				c0,0.526-0.369,1.166-0.825,1.43l-6.091,3.518c-0.456,0.263-0.825,0.05-0.825-0.476l-0.001-7.035
				C85.799,264.125,86.168,263.485,86.624,263.221z"/>
			<path id="XMLID_899_" style="fill:#FFFFFF;" d="M75.539,282.172l6.09-3.517c0.456-0.263,0.825-0.05,0.825,0.477l0.001,7.033
				c0,0.526-0.369,1.166-0.825,1.43l-6.091,3.517c-0.456,0.263-0.825,0.05-0.825-0.476l0-7.035
				C74.714,283.075,75.084,282.435,75.539,282.172z"/>
			<path id="XMLID_897_" style="fill:#FFFFFF;" d="M86.624,275.775l6.09-3.517c0.456-0.263,0.825-0.05,0.825,0.476l0.001,7.034
				c0,0.526-0.369,1.166-0.825,1.429l-6.091,3.518c-0.456,0.263-0.825,0.05-0.825-0.476l-0.001-7.035
				C85.799,276.679,86.168,276.039,86.624,275.775z"/>
			<path id="XMLID_895_" style="fill:#FFFFFF;" d="M75.539,294.726l6.09-3.516c0.456-0.263,0.825-0.05,0.825,0.476l0.001,7.034
				c0,0.526-0.369,1.166-0.825,1.43l-6.091,3.518c-0.456,0.263-0.825,0.05-0.825-0.476l0-7.035
				C74.714,295.629,75.084,294.989,75.539,294.726z"/>
			<path id="XMLID_894_" style="fill:#FFFFFF;" d="M86.624,288.329l6.09-3.517c0.456-0.263,0.825-0.05,0.825,0.476l0.001,7.033
				c0,0.526-0.369,1.166-0.825,1.429l-6.091,3.518c-0.456,0.263-0.825,0.05-0.825-0.476l-0.001-7.035
				C85.799,289.233,86.168,288.592,86.624,288.329z"/>
			<path id="XMLID_893_" style="fill:#FFFFFF;" d="M75.539,307.28l6.09-3.516c0.456-0.263,0.825-0.05,0.825,0.476l0.001,7.033
				c0,0.526-0.369,1.166-0.825,1.43l-6.091,3.518c-0.456,0.263-0.825,0.05-0.825-0.476l0-7.035
				C74.714,308.183,75.084,307.543,75.539,307.28z"/>
			<path id="XMLID_892_" style="fill:#FFFFFF;" d="M86.624,300.883l6.09-3.516c0.456-0.263,0.825-0.05,0.825,0.476l0.001,7.034
				c0,0.526-0.369,1.166-0.825,1.43l-6.091,3.518c-0.456,0.263-0.825,0.05-0.825-0.476l-0.001-7.035
				C85.799,301.786,86.168,301.147,86.624,300.883z"/>
			<path id="XMLID_754_" style="fill:#FFFFFF;" d="M75.539,319.834l6.09-3.516c0.456-0.263,0.825-0.05,0.825,0.476l0.001,7.034
				c0,0.526-0.369,1.166-0.825,1.43l-6.091,3.518c-0.456,0.263-0.825,0.05-0.825-0.476l0-7.035
				C74.714,320.737,75.084,320.097,75.539,319.834z"/>
			<path id="XMLID_671_" style="fill:#FFFFFF;" d="M86.624,313.438l6.09-3.517c0.456-0.263,0.825-0.05,0.825,0.477l0.001,7.033
				c0,0.526-0.369,1.166-0.825,1.43l-6.091,3.518c-0.456,0.263-0.825,0.05-0.825-0.477l-0.001-7.034
				C85.799,314.341,86.168,313.701,86.624,313.438z"/>
		</g>
		<g>
			<path id="XMLID_667_" style="fill:#FAFAFA;" d="M75.416,335.419l10.219-5.901c0.765-0.441,1.385-0.083,1.385,0.8l0.002,11.803
				c0,0.883-0.62,1.957-1.385,2.399l-10.221,5.903c-0.765,0.442-1.385,0.084-1.385-0.799l0-11.805
				C74.031,336.934,74.651,335.86,75.416,335.419z"/>
			<path id="XMLID_595_" style="fill:#263238;" d="M92.077,337.733l0.002,9.677c-0.013,0.153-0.197,0.471-0.313,0.553l-8.389,4.845
				l-0.001-9.678c0.013-0.153,0.197-0.471,0.313-0.553L92.077,337.733 M93.454,334.63c-0.186,0-0.396,0.061-0.619,0.189
				l-10.219,5.901c-0.765,0.442-1.385,1.516-1.385,2.399l0.001,11.805c0,0.626,0.312,0.988,0.766,0.988
				c0.186,0,0.396-0.061,0.619-0.189l10.221-5.903c0.765-0.442,1.384-1.516,1.384-2.399l-0.002-11.803
				C94.221,334.992,93.908,334.63,93.454,334.63L93.454,334.63z"/>
		</g>
	</g>
	<g id="Files_Window">
		<g id="Window_18_">
			<g id="Window_19_">
				<path style="fill:#263238;" d="M466.57,16.577c0.559,0.348,3.176,1.836,3.83,2.173c-0.211-0.095-0.454-0.148-0.707-0.148
					c-0.422,0-0.907,0.137-1.403,0.433l-54.345,31.324c-1.73,1.002-3.133,3.429-3.133,5.433v93.539c0,0.158,0.011,0.316,0.032,0.475
					c0.021,0.127,0.042,0.264,0.074,0.38c0.021,0.137,0.053,0.264,0.095,0.38c0.074,0.253,0.179,0.485,0.316,0.686
					c0.042,0.074,0.095,0.148,0.148,0.221c0.063,0.095,0.148,0.19,0.232,0.264c0.011,0.021,0.021,0.032,0.032,0.032
					c0.074,0.074,0.148,0.127,0.232,0.19c-0.031-0.021-0.063-0.042-0.095-0.063c-1.108-0.622-3.429-1.941-3.756-2.121
					c-0.802-0.422-1.319-1.509-1.319-2.722V53.514c0-1.013,0.369-2.142,0.949-3.144c0.57-0.971,1.35-1.804,2.184-2.289
					l54.345-31.324C465.178,16.25,465.98,16.239,466.57,16.577z"/>
			</g>
			<path id="Outline_4_" style="fill:#37474F;" d="M469.688,18.607c-0.422,0-0.897,0.138-1.401,0.428L413.95,50.357
				c-1.732,1-3.136,3.432-3.136,5.432v93.538c0,1.581,0.878,2.924,2.103,2.924c0.324,0,0.673-0.094,1.036-0.303l54.333-31.375
				c1.733-0.997,3.139-3.427,3.139-5.427V20.845C471.424,19.427,470.718,18.607,469.688,18.607L469.688,18.607z"/>
			<path id="Outline_3_" style="fill:#37474F;" d="M411.741,151.768c0.042,0.042,0.095,0.084,0.137,0.127
				c0.031,0.021,0.064,0.042,0.095,0.063C411.888,151.895,411.815,151.842,411.741,151.768z"/>
			<g id="Up_Bar_3_">
				<g>
					<g id="XMLID_553_">
						<path id="XMLID_594_" style="fill:#455A64;" d="M457.687,28.192c-0.742,0.428-1.344,1.703-1.344,2.846
							c0,1.143,0.602,1.722,1.344,1.294c0.742-0.429,1.344-1.703,1.344-2.846C459.031,28.343,458.429,27.764,457.687,28.192z"/>
						<path id="XMLID_589_" style="fill:#455A64;" d="M462.526,25.393c-0.742,0.429-1.344,1.703-1.344,2.846
							c0,1.143,0.602,1.722,1.344,1.293c0.742-0.429,1.344-1.703,1.344-2.846S463.268,24.964,462.526,25.393z"/>
						<path id="XMLID_555_" style="fill:#455A64;" d="M467.366,22.594c-0.742,0.429-1.344,1.703-1.344,2.846
							c0,1.143,0.602,1.722,1.344,1.293c0.742-0.429,1.344-1.703,1.344-2.846C468.71,22.744,468.108,22.165,467.366,22.594z"/>
					</g>
					<g id="XMLID_321_">
						<path style="fill:#455A64;" d="M468.287,19.034l-54.334,31.323c-0.858,0.503-1.647,1.351-2.209,2.328l-3.985-2.308
							c0.563-0.967,1.332-1.805,2.18-2.288l54.344-31.323c0.898-0.523,1.696-0.533,2.278-0.187c0.563,0.345,3.166,1.825,3.827,2.18
							C469.835,18.491,469.096,18.57,468.287,19.034z"/>
					</g>
				</g>
			</g>
		</g>
		<g>
			<g>
				<path style="fill:#263238;" d="M410.296,66.25c-0.09,0-0.177-0.045-0.227-0.129c-0.074-0.125-0.034-0.286,0.092-0.362
					l4.676-2.791v-4.705c0-0.094,0.051-0.181,0.132-0.229l12.856-7.422c0.082-0.047,0.181-0.047,0.264,0
					c0.081,0.047,0.132,0.135,0.132,0.229v4.492l42.46-24.515c0.124-0.071,0.285-0.031,0.361,0.097
					c0.072,0.126,0.029,0.287-0.097,0.361l-42.855,24.743c-0.082,0.047-0.181,0.047-0.264,0c-0.081-0.047-0.132-0.135-0.132-0.229
					v-4.492l-12.329,7.118v4.702c0,0.093-0.048,0.179-0.129,0.227l-4.804,2.868C410.388,66.237,410.342,66.25,410.296,66.25z"/>
			</g>
			<polygon style="fill:#263238;" points="428.892,50.3 441.749,42.878 441.749,46.738 428.892,54.161 			"/>
			<polygon style="fill:#263238;" points="442.525,42.395 455.382,34.973 455.382,38.834 442.525,46.256 			"/>
			<g>
				<path style="fill:#455A64;" d="M415.099,68.16l1.544-0.891c0.757-0.437,1.37-0.083,1.37,0.791v1.783
					c0,0.874-0.613,1.937-1.37,2.374l-1.544,0.892c-0.757,0.437-1.37,0.083-1.37-0.791v-1.784
					C413.729,69.66,414.342,68.598,415.099,68.16z"/>
			</g>
			<g>
				<path style="fill:#455A64;" d="M415.099,80.448l1.544-0.891c0.757-0.437,1.37-0.083,1.37,0.791v1.783
					c0,0.874-0.613,1.937-1.37,2.374l-1.544,0.891c-0.757,0.437-1.37,0.083-1.37-0.791v-1.784
					C413.729,81.948,414.342,80.885,415.099,80.448z"/>
			</g>
			<g>
				<path style="fill:#455A64;" d="M415.099,90.446l1.544-0.891c0.757-0.437,1.37-0.083,1.37,0.791v1.783
					c0,0.874-0.613,1.937-1.37,2.374l-1.544,0.891c-0.757,0.437-1.37,0.083-1.37-0.791V92.82
					C413.729,91.946,414.342,90.884,415.099,90.446z"/>
			</g>
			<g>
				<path style="fill:#455A64;" d="M415.099,100.445l1.544-0.891c0.757-0.437,1.37-0.083,1.37,0.791v1.783
					c0,0.874-0.613,1.937-1.37,2.374l-1.544,0.891c-0.757,0.437-1.37,0.083-1.37-0.791v-1.784
					C413.729,101.945,414.342,100.882,415.099,100.445z"/>
			</g>
			<g>
				<path style="fill:#455A64;" d="M415.099,110.443l1.544-0.891c0.757-0.437,1.37-0.083,1.37,0.791v1.783
					c0,0.874-0.613,1.937-1.37,2.374l-1.544,0.891c-0.757,0.437-1.37,0.083-1.37-0.791v-1.784
					C413.729,111.943,414.342,110.881,415.099,110.443z"/>
			</g>
			<g>
				<path style="fill:#455A64;" d="M415.099,120.442l1.544-0.891c0.757-0.437,1.37-0.083,1.37,0.791v1.783
					c0,0.874-0.613,1.937-1.37,2.374l-1.544,0.891c-0.757,0.437-1.37,0.083-1.37-0.791v-1.784
					C413.729,121.942,414.342,120.879,415.099,120.442z"/>
			</g>
			<g>
				<path style="fill:#455A64;" d="M415.099,130.44l1.544-0.891c0.757-0.437,1.37-0.083,1.37,0.791v1.783
					c0,0.874-0.613,1.937-1.37,2.374l-1.544,0.891c-0.757,0.437-1.37,0.083-1.37-0.791v-1.783
					C413.729,131.94,414.342,130.878,415.099,130.44z"/>
			</g>
			<g>
				<path style="fill:#263238;" d="M420.399,65.101l11.029-6.368c0.505-0.291,0.914-0.055,0.914,0.528v2.839
					c0,0.583-0.409,1.291-0.914,1.583l-11.029,6.368c-0.505,0.291-0.914,0.055-0.914-0.528v-2.839
					C419.485,66.101,419.895,65.392,420.399,65.101z"/>
			</g>
			<g>
				<path style="fill:#455A64;" d="M436.443,55.838l1.544-0.891c0.757-0.437,1.37-0.083,1.37,0.791v1.784
					c0,0.874-0.614,1.937-1.37,2.374l-1.544,0.891c-0.757,0.437-1.37,0.083-1.37-0.791v-1.784
					C435.073,57.338,435.686,56.275,436.443,55.838z"/>
			</g>
			<g>
				<path style="fill:#263238;" d="M441.743,52.778l11.03-6.368c0.505-0.291,0.914-0.055,0.914,0.528v2.839
					c0,0.583-0.409,1.291-0.914,1.583l-11.03,6.368c-0.504,0.291-0.914,0.055-0.914-0.528V54.36
					C440.829,53.778,441.238,53.069,441.743,52.778z"/>
			</g>
			<g>
				<path style="fill:#263238;" d="M412.663,79.734c-0.091,0-0.179-0.047-0.229-0.132c-0.072-0.126-0.029-0.287,0.097-0.361
					l47.451-27.402c0.124-0.072,0.285-0.031,0.361,0.097c0.072,0.126,0.029,0.288-0.097,0.361l-47.451,27.402
					C412.754,79.723,412.708,79.734,412.663,79.734z"/>
			</g>
			<g>
				<path style="fill:#263238;" d="M412.663,89.631c-0.091,0-0.179-0.047-0.229-0.132c-0.072-0.126-0.029-0.287,0.097-0.36
					l47.451-27.402c0.124-0.072,0.285-0.031,0.361,0.097c0.072,0.126,0.029,0.287-0.097,0.361l-47.451,27.402
					C412.754,89.62,412.708,89.631,412.663,89.631z"/>
			</g>
			<g>
				<path style="fill:#263238;" d="M412.663,99.529c-0.091,0-0.179-0.047-0.229-0.132c-0.072-0.126-0.029-0.287,0.097-0.36
					l47.451-27.402c0.124-0.072,0.285-0.031,0.361,0.097c0.072,0.126,0.029,0.287-0.097,0.361l-47.451,27.402
					C412.754,99.517,412.708,99.529,412.663,99.529z"/>
			</g>
			<g>
				<path style="fill:#263238;" d="M412.663,109.426c-0.091,0-0.179-0.047-0.229-0.132c-0.072-0.126-0.029-0.287,0.097-0.361
					l47.451-27.402c0.124-0.072,0.285-0.031,0.361,0.097c0.072,0.126,0.029,0.287-0.097,0.361l-47.451,27.402
					C412.754,109.414,412.708,109.426,412.663,109.426z"/>
			</g>
			<g>
				<path style="fill:#263238;" d="M412.663,119.323c-0.091,0-0.179-0.047-0.229-0.132c-0.072-0.126-0.029-0.287,0.097-0.361
					l47.451-27.402c0.124-0.072,0.285-0.031,0.361,0.097c0.072,0.126,0.029,0.287-0.097,0.361l-47.451,27.402
					C412.754,119.311,412.708,119.323,412.663,119.323z"/>
			</g>
			<g>
				<path style="fill:#263238;" d="M412.663,129.22c-0.091,0-0.179-0.048-0.229-0.132c-0.072-0.126-0.029-0.288,0.097-0.361
					l47.451-27.402c0.124-0.072,0.285-0.031,0.361,0.097c0.072,0.126,0.029,0.287-0.097,0.361l-47.451,27.402
					C412.754,129.208,412.708,129.22,412.663,129.22z"/>
			</g>
			<g>
				<path style="fill:#263238;" d="M412.663,139.117c-0.091,0-0.179-0.047-0.229-0.132c-0.072-0.126-0.029-0.288,0.097-0.361
					l47.451-27.402c0.124-0.072,0.285-0.031,0.361,0.097c0.072,0.126,0.029,0.287-0.097,0.361l-47.451,27.402
					C412.754,139.105,412.708,139.117,412.663,139.117z"/>
			</g>
			<path style="fill:#E0E0E0;" d="M423.587,74.607l3.912-2.259c0.252-0.146,0.457-0.028,0.457,0.264v5.965
				c0,0.291-0.205,0.646-0.457,0.791l-3.912,2.257c-0.252,0.146-0.457,0.027-0.457-0.264v-5.962
				C423.13,75.107,423.334,74.752,423.587,74.607z"/>
			<path style="fill:#E0E0E0;" d="M423.587,84.577l3.912-2.259c0.252-0.146,0.457-0.028,0.457,0.264v5.965
				c0,0.291-0.205,0.646-0.457,0.791l-3.912,2.257c-0.252,0.146-0.457,0.028-0.457-0.264v-5.962
				C423.13,85.077,423.334,84.723,423.587,84.577z"/>
			<path style="fill:#E0E0E0;" d="M423.587,94.547l3.912-2.26c0.252-0.146,0.457-0.028,0.457,0.264v5.965
				c0,0.291-0.205,0.646-0.457,0.791l-3.912,2.257c-0.252,0.146-0.457,0.028-0.457-0.264v-5.962
				C423.13,95.047,423.334,94.693,423.587,94.547z"/>
			<path style="fill:#E0E0E0;" d="M423.587,104.517l3.912-2.259c0.252-0.146,0.457-0.028,0.457,0.264v5.965
				c0,0.291-0.205,0.646-0.457,0.791l-3.912,2.257c-0.252,0.145-0.457,0.027-0.457-0.264v-5.962
				C423.13,105.017,423.334,104.663,423.587,104.517z"/>
			<path style="fill:#E0E0E0;" d="M423.587,114.488l3.912-2.259c0.252-0.146,0.457-0.028,0.457,0.264v5.965
				c0,0.291-0.205,0.646-0.457,0.791l-3.912,2.257c-0.252,0.146-0.457,0.027-0.457-0.264v-5.962
				C423.13,114.988,423.334,114.633,423.587,114.488z"/>
			<path style="fill:#E0E0E0;" d="M423.587,124.458l3.912-2.259c0.252-0.146,0.457-0.028,0.457,0.264v5.965
				c0,0.291-0.205,0.645-0.457,0.791l-3.912,2.257c-0.252,0.146-0.457,0.027-0.457-0.264v-5.962
				C423.13,124.958,423.334,124.604,423.587,124.458z"/>
			<g style="opacity:0.2;">
				<path style="fill:#FFFFFF;" d="M432.243,73.9c-0.274,0-0.54-0.142-0.686-0.396c-0.218-0.378-0.089-0.862,0.29-1.081
					l17.306-9.991c0.38-0.219,0.863-0.087,1.081,0.29c0.218,0.378,0.089,0.862-0.289,1.081l-17.306,9.991
					C432.513,73.866,432.377,73.9,432.243,73.9z"/>
			</g>
			<g style="opacity:0.2;">
				<path style="fill:#FFFFFF;" d="M432.243,83.798c-0.274,0-0.54-0.142-0.686-0.396c-0.218-0.378-0.089-0.862,0.29-1.081
					l12.856-7.423c0.38-0.219,0.862-0.088,1.081,0.289c0.218,0.378,0.089,0.862-0.29,1.081l-12.856,7.423
					C432.513,83.764,432.377,83.798,432.243,83.798z"/>
			</g>
			<g style="opacity:0.2;">
				<path style="fill:#FFFFFF;" d="M432.243,93.695c-0.274,0-0.54-0.142-0.686-0.396c-0.218-0.378-0.089-0.862,0.29-1.081
					l21.427-12.372c0.38-0.22,0.862-0.088,1.081,0.289c0.219,0.378,0.089,0.862-0.289,1.081l-21.427,12.372
					C432.513,93.661,432.377,93.695,432.243,93.695z"/>
			</g>
			<g style="opacity:0.2;">
				<path style="fill:#FFFFFF;" d="M432.243,103.592c-0.274,0-0.54-0.142-0.686-0.396c-0.218-0.378-0.089-0.862,0.29-1.081
					l8.571-4.949c0.379-0.219,0.863-0.088,1.081,0.289c0.218,0.378,0.089,0.863-0.29,1.081l-8.571,4.949
					C432.513,103.558,432.377,103.592,432.243,103.592z"/>
			</g>
			<g style="opacity:0.2;">
				<path style="fill:#FFFFFF;" d="M432.243,113.49c-0.274,0-0.54-0.142-0.686-0.396c-0.218-0.378-0.089-0.862,0.29-1.081
					l12.857-7.424c0.379-0.219,0.863-0.088,1.081,0.29c0.218,0.378,0.089,0.862-0.289,1.081l-12.857,7.424
					C432.513,113.456,432.377,113.49,432.243,113.49z"/>
			</g>
			<g style="opacity:0.2;">
				<path style="fill:#FFFFFF;" d="M432.243,123.387c-0.274,0-0.54-0.142-0.686-0.396c-0.218-0.378-0.089-0.862,0.29-1.081
					l17.306-9.992c0.38-0.22,0.863-0.088,1.081,0.29c0.218,0.378,0.089,0.862-0.289,1.081l-17.306,9.992
					C432.513,123.353,432.377,123.387,432.243,123.387z"/>
			</g>
		</g>
		<g id="Scroll_Barr">
			<polygon style="fill:#263238;" points="467.757,40.479 463.471,42.953 463.471,117.182 467.757,114.707 			"/>
			<path style="fill:#37474F;" d="M465.614,43.155c-0.637,0.368-1.153,1.374-1.153,2.248v36.76c0,0.874,0.516,1.285,1.153,0.917
				c0.637-0.368,1.153-1.374,1.153-2.248l0-36.76C466.767,43.198,466.251,42.787,465.614,43.155z"/>
		</g>
	</g>
</g>
<g id="Artboards">
	<g id="Artboard_1_">
		<g id="Sheet_1_">
			<g>
				<polygon style="fill:#FFFFFF;" points="126.329,195.997 249.612,124.82 249.612,310.961 126.276,382.165 				"/>
				<path style="fill:#EBEBEB;" d="M249.281,125.392V310.77l-122.675,70.823l0.052-185.404L249.281,125.392 M249.942,124.248
					l-123.943,71.559l-0.053,186.93l123.996-71.585V124.248L249.942,124.248z"/>
			</g>
			<polygon style="fill:#F0F0F0;" points="125.999,195.807 123.238,194.215 247.181,122.656 249.942,124.249 			"/>
			<polygon style="fill:#E0E0E0;" points="125.999,195.807 125.946,382.737 123.264,381.188 123.238,194.215 125.946,195.774 			"/>
		</g>
		<path style="fill:#E0E0E0;" d="M132.979,199.768l-0.06,0.035l-0.05,170.737v0.209l110.092-63.559l0.06-0.035v-170.92
			L132.979,199.768z M242.78,153.881l-14.914,8.611v-17.228l14.914-8.611V153.881z M148.073,213.217v17.218l-14.924,8.617
			l0.005-17.221L148.073,213.217z M133.154,221.54l0.001-4.076l14.918-8.613v4.076L133.154,221.54z M148.073,230.726v4.075
			l-14.925,8.617l0.001-4.075L148.073,230.726z M148.073,235.092v17.218l-14.93,8.62l0.005-17.221L148.073,235.092z
			 M148.073,252.601v4.076l-14.932,8.621l0.001-4.076L148.073,252.601z M148.073,256.967v17.218l-14.937,8.624l0.005-17.221
			L148.073,256.967z M148.073,274.477v4.076l-14.938,8.625l0.001-4.077L148.073,274.477z M148.073,278.843v17.218l-14.943,8.628
			l0.005-17.221L148.073,278.843z M148.073,296.352v4.075l-14.945,8.628l0.001-4.075L148.073,296.352z M148.073,300.718v17.219
			l-14.95,8.631l0.005-17.221L148.073,300.718z M148.073,318.227v4.076l-14.951,8.632l0.001-4.076L148.073,318.227z
			 M148.073,322.593v17.218l-14.956,8.635l0.005-17.221L148.073,322.593z M148.073,340.102v4.076l-14.957,8.636l0.001-4.077
			L148.073,340.102z M224.086,295.925v-17.218l3.529-2.037v17.218L224.086,295.925z M227.614,294.179v4.076l-3.529,2.037v-4.076
			L227.614,294.179z M224.086,278.416v-4.075l3.529-2.037v4.075L224.086,278.416z M224.086,274.051v-17.218l3.529-2.037v17.218
			L224.086,274.051z M224.086,256.541v-4.076l3.529-2.037v4.076L224.086,256.541z M224.086,252.175v-17.218l3.529-2.037v17.218
			L224.086,252.175z M224.086,234.666v-4.076l3.529-2.037v4.076L224.086,234.666z M224.086,230.299v-17.218l3.529-2.037v17.218
			L224.086,230.299z M224.086,212.79v-4.075l3.529-2.037v4.075L224.086,212.79z M224.086,208.424v-17.218l3.529-2.037v17.218
			L224.086,208.424z M224.086,190.915v-4.076l3.529-2.037v4.076L224.086,190.915z M224.086,186.549v-17.218l3.529-2.037v17.219
			L224.086,186.549z M224.086,169.04v-4.075l3.529-2.037v4.075L224.086,169.04z M208.925,304.678V287.46l14.909-8.608v17.218
			L208.925,304.678z M223.834,296.361v4.076l-14.909,8.608v-4.076L223.834,296.361z M208.925,287.169v-4.075l14.909-8.608v4.075
			L208.925,287.169z M208.925,282.803v-17.219l14.909-8.608v17.219L208.925,282.803z M208.925,265.294v-4.076l14.909-8.608v4.076
			L208.925,265.294z M208.925,260.928V243.71l14.909-8.608v17.218L208.925,260.928z M208.925,243.419v-4.076l14.909-8.608v4.076
			L208.925,243.419z M208.925,239.052v-17.219l14.909-8.608v17.218L208.925,239.052z M208.925,221.543v-4.076l14.909-8.608v4.075
			L208.925,221.543z M208.925,217.177v-17.219l14.909-8.608v17.218L208.925,217.177z M208.925,199.668v-4.076l14.909-8.608v4.076
			L208.925,199.668z M208.925,195.302v-17.218l14.909-8.608v17.219L208.925,195.302z M208.925,177.793v-4.076l14.909-8.608v4.075
			L208.925,177.793z M208.925,173.427v-17.228l14.909-8.608v17.228L208.925,173.427z M205.145,306.861v-17.218l3.529-2.037v17.219
			L205.145,306.861z M208.674,305.114v4.076l-3.529,2.037v-4.076L208.674,305.114z M205.145,289.352v-4.075l3.529-2.037v4.075
			L205.145,289.352z M205.145,284.986v-17.218l3.529-2.037v17.218L205.145,284.986z M205.145,267.477v-4.075l3.529-2.037v4.076
			L205.145,267.477z M205.145,263.11v-17.218l3.529-2.037v17.219L205.145,263.11z M205.145,245.601v-4.076l3.529-2.037v4.076
			L205.145,245.601z M205.145,241.235v-17.219l3.529-2.037v17.219L205.145,241.235z M205.145,223.726v-4.075l3.529-2.037v4.076
			L205.145,223.726z M205.145,219.359v-17.218l3.529-2.037v17.218L205.145,219.359z M205.145,201.85v-4.075l3.529-2.037v4.076
			L205.145,201.85z M205.145,197.484v-17.218l3.529-2.037v17.218L205.145,197.484z M205.145,179.975V175.9l3.529-2.037v4.075
			L205.145,179.975z M205.145,175.609v-17.228l3.529-2.037v17.228L205.145,175.609z M189.985,315.613v-17.218l14.909-8.608v17.219
			L189.985,315.613z M204.894,307.297v4.076l-14.909,8.608v-4.076L204.894,307.297z M189.985,298.104v-4.075l14.909-8.608v4.075
			L189.985,298.104z M189.985,293.738V276.52l14.909-8.607v17.218L189.985,293.738z M189.985,276.229v-4.075l14.909-8.608v4.075
			L189.985,276.229z M189.985,271.863v-17.218l14.909-8.608v17.219L189.985,271.863z M189.985,254.354v-4.076l14.909-8.608v4.076
			L189.985,254.354z M189.985,249.988v-17.218l14.909-8.608v17.218L189.985,249.988z M189.985,232.479v-4.076l14.909-8.608v4.076
			L189.985,232.479z M189.985,228.112v-17.218l14.909-8.608v17.219L189.985,228.112z M189.985,210.603v-4.075l14.909-8.608v4.075
			L189.985,210.603z M189.985,206.237v-17.219l14.909-8.608v17.218L189.985,206.237z M189.985,188.728v-4.076l14.909-8.608v4.076
			L189.985,188.728z M189.985,184.362v-17.228l14.909-8.608v17.228L189.985,184.362z M186.205,317.796v-17.219l3.528-2.037v17.218
			L186.205,317.796z M189.733,316.049v4.076l-3.528,2.037v-4.076L189.733,316.049z M186.205,300.287v-4.075l3.528-2.037v4.075
			L186.205,300.287z M186.205,295.921v-17.218l3.528-2.037v17.219L186.205,295.921z M186.205,278.412v-4.075l3.528-2.037v4.075
			L186.205,278.412z M186.205,274.046v-17.218l3.528-2.037v17.218L186.205,274.046z M186.205,256.537v-4.076l3.528-2.037v4.076
			L186.205,256.537z M186.205,252.17v-17.219l3.528-2.037v17.218L186.205,252.17z M186.205,234.661v-4.076l3.528-2.037v4.076
			L186.205,234.661z M186.205,230.295v-17.219l3.528-2.037v17.218L186.205,230.295z M186.205,212.786v-4.075l3.528-2.037v4.075
			L186.205,212.786z M186.205,208.42v-17.218l3.528-2.037v17.218L186.205,208.42z M186.205,190.911v-4.076l3.528-2.037v4.076
			L186.205,190.911z M186.205,186.544v-17.228l3.528-2.037v17.228L186.205,186.544z M171.045,326.549V309.33l14.909-8.608v17.219
			L171.045,326.549z M185.953,318.232v4.076l-14.909,8.608v-4.076L185.953,318.232z M171.045,309.04v-4.076l14.909-8.608v4.075
			L171.045,309.04z M171.045,304.673v-17.218l14.909-8.608v17.219L171.045,304.673z M171.045,287.164v-4.075l14.909-8.608v4.075
			L171.045,287.164z M171.045,282.799V265.58l14.909-8.608v17.218L171.045,282.799z M171.045,265.289v-4.076l14.909-8.608v4.076
			L171.045,265.289z M171.045,260.923v-17.219l14.909-8.608v17.218L171.045,260.923z M171.045,243.414v-4.076l14.909-8.608v4.076
			L171.045,243.414z M171.045,239.048v-17.219l14.909-8.608v17.219L171.045,239.048z M171.045,221.538v-4.075l14.909-8.608v4.075
			L171.045,221.538z M171.045,217.173v-17.219l14.909-8.608v17.218L171.045,217.173z M171.045,199.663v-4.076l14.909-8.608v4.076
			L171.045,199.663z M171.045,195.297v-17.228l14.909-8.608v17.228L171.045,195.297z M167.265,328.731v-17.218l3.528-2.037v17.219
			L167.265,328.731z M170.793,326.985v4.076l-3.528,2.037v-4.076L170.793,326.985z M167.265,311.222v-4.075l3.528-2.037v4.076
			L167.265,311.222z M167.265,306.856v-17.218l3.528-2.037v17.218L167.265,306.856z M167.265,289.347v-4.075l3.528-2.037v4.075
			L167.265,289.347z M167.265,284.981v-17.218l3.528-2.037v17.218L167.265,284.981z M167.265,267.472v-4.076l3.528-2.037v4.076
			L167.265,267.472z M167.265,263.105v-17.218l3.528-2.037v17.219L167.265,263.105z M167.265,245.596v-4.076l3.528-2.037v4.076
			L167.265,245.596z M167.265,241.23v-17.218l3.528-2.037v17.218L167.265,241.23z M167.265,223.721v-4.075l3.528-2.037v4.075
			L167.265,223.721z M167.265,219.355v-17.219l3.528-2.037v17.218L167.265,219.355z M167.265,201.846v-4.076l3.528-2.037v4.076
			L167.265,201.846z M167.265,197.48v-17.228l3.528-2.037v17.228L167.265,197.48z M152.104,337.484v-17.219l14.909-8.608v17.219
			L152.104,337.484z M167.013,329.167v4.076l-14.909,8.608v-4.076L167.013,329.167z M152.104,319.975v-4.076l14.909-8.608v4.076
			L152.104,319.975z M152.104,315.609V298.39l14.909-8.608v17.218L152.104,315.609z M152.104,298.099v-4.075l14.909-8.608v4.075
			L152.104,298.099z M152.104,293.734v-17.218l14.909-8.608v17.218L152.104,293.734z M152.104,276.225v-4.076l14.909-8.608v4.076
			L152.104,276.225z M152.104,271.858V254.64l14.909-8.608v17.219L152.104,271.858z M152.104,254.349v-4.076l14.909-8.608v4.076
			L152.104,254.349z M152.104,249.983v-17.218l14.909-8.608v17.219L152.104,249.983z M152.104,232.474v-4.075l14.909-8.608v4.075
			L152.104,232.474z M152.104,228.108V210.89l14.909-8.608V219.5L152.104,228.108z M152.104,210.599v-4.076l14.909-8.608v4.076
			L152.104,210.599z M152.104,206.232v-17.228l14.909-8.608v17.228L152.104,206.232z M148.324,339.667v-17.219l3.529-2.037v17.219
			L148.324,339.667z M151.853,337.92v4.076l-3.529,2.037v-4.076L151.853,337.92z M148.324,322.157v-4.076l3.529-2.037v4.076
			L148.324,322.157z M148.324,317.791v-17.218l3.529-2.037v17.219L148.324,317.791z M148.324,300.282v-4.075l3.529-2.037v4.075
			L148.324,300.282z M148.324,295.916v-17.218l3.529-2.037v17.218L148.324,295.916z M148.324,278.407v-4.076l3.529-2.037v4.076
			L148.324,278.407z M148.324,274.041v-17.218l3.529-2.037v17.219L148.324,274.041z M148.324,256.532v-4.076l3.529-2.037v4.076
			L148.324,256.532z M148.324,252.165v-17.219l3.529-2.037v17.218L148.324,252.165z M148.324,234.656v-4.075l3.529-2.037v4.075
			L148.324,234.656z M148.324,230.29v-17.218l3.529-2.037v17.218L148.324,230.29z M148.324,212.781v-4.076l3.529-2.037v4.076
			L148.324,212.781z M148.324,208.415v-17.228l3.529-2.037v17.228L148.324,208.415z M151.853,342.286v17.224l-3.529,2.037v-17.223
			L151.853,342.286z M152.104,342.141l14.909-8.608v17.224l-14.909,8.607V342.141z M167.265,333.388l3.528-2.037v17.224
			l-3.528,2.037V333.388z M171.045,331.206l14.909-8.608v17.225l-14.909,8.607V331.206z M186.205,322.453l3.528-2.037v17.225
			l-3.528,2.037V322.453z M189.985,320.271l14.909-8.608v17.225l-14.909,8.607V320.271z M205.145,311.518l3.529-2.037v17.225
			l-3.529,2.037V311.518z M208.925,309.335l14.909-8.608v17.226l-14.909,8.607V309.335z M224.086,300.582l3.529-2.037v17.226
			l-3.529,2.037V300.582z M224.086,164.674v-17.228l3.529-2.037v17.228L224.086,164.674z M227.866,294.034l14.914-8.611v4.076
			l-14.914,8.611V294.034z M227.866,293.743v-17.218l14.914-8.611v17.219L227.866,293.743z M227.866,276.234v-4.075l14.914-8.611
			v4.075L227.866,276.234z M227.866,271.868V254.65l14.914-8.611v17.219L227.866,271.868z M227.866,254.359v-4.076l14.914-8.611
			v4.076L227.866,254.359z M227.866,249.993v-17.219l14.914-8.611v17.219L227.866,249.993z M227.866,232.484v-4.076l14.914-8.611
			v4.076L227.866,232.484z M227.866,228.117v-17.218l14.914-8.611v17.218L227.866,228.117z M227.866,210.608v-4.075l14.914-8.611
			v4.075L227.866,210.608z M227.866,206.242v-17.219l14.914-8.611v17.218L227.866,206.242z M227.866,188.733v-4.076l14.914-8.611
			v4.076L227.866,188.733z M227.866,184.367v-17.219l14.914-8.611v17.218L227.866,184.367z M227.866,166.857v-4.075l14.914-8.611
			v4.075L227.866,166.857z M148.073,191.332v17.228l-14.918,8.613l0.005-17.231L148.073,191.332z M133.115,353.105l14.957-8.636
			v17.223l-14.962,8.638L133.115,353.105z M227.866,315.626V298.4l14.914-8.611v17.227L227.866,315.626z"/>
		<g style="opacity:0.25;">
			<polygon style="fill:#BA68C8;" points="133.16,199.942 167.013,180.397 167.013,350.758 133.155,370.307 			"/>
			<polygon style="fill:#BA68C8;" points="171.041,178.071 204.894,158.526 204.894,328.888 171.036,348.436 			"/>
			<polygon style="fill:#BA68C8;" points="208.926,156.198 242.779,136.653 242.779,307.015 208.921,326.563 			"/>
		</g>
	</g>
	<g id="Artboard">
		<g id="Sheet_3_">
			<g>
				<polygon style="fill:#FFFFFF;" points="262.046,117.662 385.329,46.486 385.329,232.626 261.993,303.831 				"/>
				<path style="fill:#EBEBEB;" d="M384.999,47.057v185.378l-122.675,70.822l0.052-185.404L384.999,47.057 M385.659,45.913
					l-123.943,71.559l-0.053,186.93l123.996-71.585V45.913L385.659,45.913z"/>
			</g>
			<polygon style="fill:#F0F0F0;" points="261.716,117.472 258.955,115.88 382.898,44.322 385.66,45.914 			"/>
			<polygon style="fill:#E0E0E0;" points="261.716,117.472 261.663,304.402 258.982,302.854 258.955,115.88 261.663,117.439 			"/>
		</g>
		<path style="fill:#E0E0E0;" d="M268.697,121.433l-0.06,0.035l-0.05,170.737v0.209l110.092-63.559l0.06-0.035V57.901
			L268.697,121.433z M378.497,75.546l-14.914,8.611V66.929l14.914-8.611V75.546z M283.79,134.883v17.218l-14.924,8.617l0.005-17.221
			L283.79,134.883z M268.871,143.206l0.001-4.076l14.918-8.613v4.076L268.871,143.206z M283.79,152.392v4.075l-14.925,8.617
			l0.001-4.075L283.79,152.392z M283.79,156.758v17.218l-14.93,8.62l0.005-17.221L283.79,156.758z M283.79,174.267v4.076
			l-14.932,8.621l0.001-4.076L283.79,174.267z M283.79,178.633v17.218l-14.937,8.624l0.005-17.221L283.79,178.633z M283.79,196.142
			v4.076l-14.938,8.625l0.001-4.077L283.79,196.142z M283.79,200.509v17.218l-14.943,8.628l0.005-17.221L283.79,200.509z
			 M283.79,218.018v4.075l-14.945,8.628l0.001-4.076L283.79,218.018z M283.79,222.383v17.218l-14.95,8.631l0.005-17.221
			L283.79,222.383z M283.79,239.893v4.076l-14.951,8.632l0.001-4.076L283.79,239.893z M283.79,244.259v17.218l-14.956,8.635
			l0.005-17.221L283.79,244.259z M283.79,261.768v4.076l-14.957,8.636l0.001-4.077L283.79,261.768z M359.803,217.591v-17.218
			l3.529-2.037v17.218L359.803,217.591z M363.332,215.844v4.076l-3.529,2.037v-4.076L363.332,215.844z M359.803,200.082v-4.075
			l3.529-2.037v4.075L359.803,200.082z M359.803,195.716v-17.218l3.529-2.037v17.218L359.803,195.716z M359.803,178.207v-4.076
			l3.529-2.037v4.076L359.803,178.207z M359.803,173.841v-17.218l3.529-2.037v17.218L359.803,173.841z M359.803,156.332v-4.076
			l3.529-2.037v4.076L359.803,156.332z M359.803,151.965v-17.218l3.529-2.037v17.218L359.803,151.965z M359.803,134.456v-4.075
			l3.529-2.037v4.075L359.803,134.456z M359.803,130.09v-17.218l3.529-2.037v17.218L359.803,130.09z M359.803,112.581v-4.076
			l3.529-2.037v4.076L359.803,112.581z M359.803,108.215V90.996l3.529-2.037v17.218L359.803,108.215z M359.803,90.705V86.63
			l3.529-2.037v4.075L359.803,90.705z M344.643,226.344v-17.218l14.909-8.608v17.218L344.643,226.344z M359.551,218.027v4.076
			l-14.909,8.608v-4.076L359.551,218.027z M344.643,208.835v-4.075l14.909-8.608v4.075L344.643,208.835z M344.643,204.469V187.25
			l14.909-8.608v17.218L344.643,204.469z M344.643,186.96v-4.076l14.909-8.608v4.076L344.643,186.96z M344.643,182.594v-17.218
			l14.909-8.608v17.218L344.643,182.594z M344.643,165.085v-4.076l14.909-8.608v4.076L344.643,165.085z M344.643,160.718V143.5
			l14.909-8.608v17.218L344.643,160.718z M344.643,143.209v-4.075l14.909-8.608v4.075L344.643,143.209z M344.643,138.843v-17.219
			l14.909-8.608v17.218L344.643,138.843z M344.643,121.334v-4.076l14.909-8.608v4.076L344.643,121.334z M344.643,116.967V99.749
			l14.909-8.608v17.218L344.643,116.967z M344.643,99.458v-4.076l14.909-8.608v4.075L344.643,99.458z M344.643,95.092V77.864
			l14.909-8.608v17.228L344.643,95.092z M340.862,228.526v-17.218l3.529-2.037v17.219L340.862,228.526z M344.391,226.78v4.076
			l-3.529,2.037v-4.076L344.391,226.78z M340.862,211.017v-4.075l3.529-2.037v4.075L340.862,211.017z M340.862,206.651v-17.218
			l3.529-2.037v17.219L340.862,206.651z M340.862,189.142v-4.075l3.529-2.037v4.076L340.862,189.142z M340.862,184.776v-17.218
			l3.529-2.037v17.219L340.862,184.776z M340.862,167.267v-4.076l3.529-2.037v4.076L340.862,167.267z M340.862,162.9v-17.218
			l3.529-2.037v17.219L340.862,162.9z M340.862,145.391v-4.076l3.529-2.037v4.076L340.862,145.391z M340.862,141.025v-17.218
			l3.529-2.037v17.218L340.862,141.025z M340.862,123.516v-4.075l3.529-2.037v4.076L340.862,123.516z M340.862,119.15v-17.218
			l3.529-2.037v17.218L340.862,119.15z M340.862,101.641v-4.075l3.529-2.037v4.075L340.862,101.641z M340.862,97.275V80.047
			l3.529-2.037v17.228L340.862,97.275z M325.702,237.279v-17.218l14.909-8.608v17.219L325.702,237.279z M340.611,228.962v4.076
			l-14.909,8.608v-4.076L340.611,228.962z M325.702,219.77v-4.075l14.909-8.608v4.075L325.702,219.77z M325.702,215.404v-17.218
			l14.909-8.608v17.218L325.702,215.404z M325.702,197.895v-4.075l14.909-8.608v4.075L325.702,197.895z M325.702,193.529v-17.218
			l14.909-8.608v17.219L325.702,193.529z M325.702,176.02v-4.076l14.909-8.608v4.076L325.702,176.02z M325.702,171.653v-17.218
			l14.909-8.608v17.218L325.702,171.653z M325.702,154.144v-4.076l14.909-8.608v4.076L325.702,154.144z M325.702,149.778v-17.219
			l14.909-8.608v17.218L325.702,149.778z M325.702,132.269v-4.075l14.909-8.608v4.075L325.702,132.269z M325.702,127.903v-17.218
			l14.909-8.608v17.218L325.702,127.903z M325.702,110.394v-4.076l14.909-8.608v4.076L325.702,110.394z M325.702,106.027V88.799
			l14.909-8.608V97.42L325.702,106.027z M321.922,239.462v-17.219l3.528-2.037v17.218L321.922,239.462z M325.451,237.715v4.076
			l-3.528,2.037v-4.076L325.451,237.715z M321.922,221.952v-4.075l3.528-2.037v4.075L321.922,221.952z M321.922,217.586v-17.218
			l3.528-2.037v17.218L321.922,217.586z M321.922,200.077v-4.075l3.528-2.037v4.075L321.922,200.077z M321.922,195.711v-17.219
			l3.528-2.037v17.218L321.922,195.711z M321.922,178.202v-4.076l3.528-2.037v4.076L321.922,178.202z M321.922,173.836v-17.218
			l3.528-2.037v17.218L321.922,173.836z M321.922,156.327v-4.076l3.528-2.037v4.076L321.922,156.327z M321.922,151.96v-17.219
			l3.528-2.037v17.218L321.922,151.96z M321.922,134.451v-4.075l3.528-2.037v4.075L321.922,134.451z M321.922,130.085v-17.218
			l3.528-2.037v17.218L321.922,130.085z M321.922,112.576v-4.076l3.528-2.037v4.076L321.922,112.576z M321.922,108.21V90.982
			l3.528-2.037v17.228L321.922,108.21z M306.762,248.214v-17.218l14.909-8.608v17.219L306.762,248.214z M321.671,239.897v4.076
			l-14.909,8.608v-4.076L321.671,239.897z M306.762,230.705v-4.075l14.909-8.608v4.075L306.762,230.705z M306.762,226.339v-17.218
			l14.909-8.608v17.218L306.762,226.339z M306.762,208.83v-4.075l14.909-8.608v4.075L306.762,208.83z M306.762,204.464v-17.218
			l14.909-8.608v17.218L306.762,204.464z M306.762,186.955v-4.076l14.909-8.608v4.076L306.762,186.955z M306.762,182.589V165.37
			l14.909-8.608v17.218L306.762,182.589z M306.762,165.079v-4.076l14.909-8.608v4.076L306.762,165.079z M306.762,160.713v-17.218
			l14.909-8.608v17.219L306.762,160.713z M306.762,143.204v-4.075l14.909-8.608v4.075L306.762,143.204z M306.762,138.838V121.62
			l14.909-8.608v17.218L306.762,138.838z M306.762,121.329v-4.076l14.909-8.608v4.076L306.762,121.329z M306.762,116.963V99.735
			l14.909-8.608v17.228L306.762,116.963z M302.982,250.397v-17.218l3.529-2.037v17.219L302.982,250.397z M306.51,248.65v4.076
			l-3.529,2.037v-4.076L306.51,248.65z M302.982,232.888v-4.075l3.529-2.037v4.076L302.982,232.888z M302.982,228.521v-17.218
			l3.529-2.037v17.218L302.982,228.521z M302.982,211.012v-4.075l3.529-2.037v4.075L302.982,211.012z M302.982,206.647v-17.218
			l3.529-2.037v17.219L302.982,206.647z M302.982,189.137v-4.076l3.529-2.037v4.076L302.982,189.137z M302.982,184.771v-17.218
			l3.529-2.037v17.218L302.982,184.771z M302.982,167.262v-4.076l3.529-2.037v4.076L302.982,167.262z M302.982,162.896v-17.219
			l3.529-2.037v17.218L302.982,162.896z M302.982,145.387v-4.075l3.529-2.037v4.075L302.982,145.387z M302.982,141.021v-17.219
			l3.529-2.037v17.218L302.982,141.021z M302.982,123.512v-4.076l3.529-2.037v4.076L302.982,123.512z M302.982,119.145v-17.228
			l3.529-2.037v17.228L302.982,119.145z M287.822,259.15v-17.218l14.909-8.608v17.219L287.822,259.15z M302.73,250.833v4.076
			l-14.909,8.608v-4.076L302.73,250.833z M287.822,241.641v-4.076l14.909-8.608v4.076L287.822,241.641z M287.822,237.274v-17.218
			l14.909-8.608v17.218L287.822,237.274z M287.822,219.765v-4.075l14.909-8.608v4.075L287.822,219.765z M287.822,215.4v-17.219
			l14.909-8.608v17.218L287.822,215.4z M287.822,197.89v-4.076l14.909-8.608v4.076L287.822,197.89z M287.822,193.524v-17.218
			l14.909-8.608v17.219L287.822,193.524z M287.822,176.015v-4.076l14.909-8.608v4.076L287.822,176.015z M287.822,171.648V154.43
			l14.909-8.608v17.219L287.822,171.648z M287.822,154.139v-4.075l14.909-8.608v4.075L287.822,154.139z M287.822,149.774v-17.218
			l14.909-8.608v17.218L287.822,149.774z M287.822,132.264v-4.076l14.909-8.608v4.076L287.822,132.264z M287.822,127.898V110.67
			l14.909-8.608v17.228L287.822,127.898z M284.041,261.332v-17.218l3.529-2.037v17.218L284.041,261.332z M287.57,259.586v4.076
			l-3.529,2.037v-4.076L287.57,259.586z M284.041,243.823v-4.076l3.529-2.037v4.076L284.041,243.823z M284.041,239.457v-17.218
			l3.529-2.037v17.218L284.041,239.457z M284.041,221.947v-4.075l3.529-2.037v4.075L284.041,221.947z M284.041,217.582v-17.218
			l3.529-2.037v17.218L284.041,217.582z M284.041,200.073v-4.076l3.529-2.037v4.076L284.041,200.073z M284.041,195.706v-17.218
			l3.529-2.037v17.218L284.041,195.706z M284.041,178.197v-4.076l3.529-2.037v4.076L284.041,178.197z M284.041,173.831v-17.218
			l3.529-2.037v17.218L284.041,173.831z M284.041,156.322v-4.075l3.529-2.037v4.075L284.041,156.322z M284.041,151.956v-17.218
			l3.529-2.037v17.218L284.041,151.956z M284.041,134.447v-4.076l3.529-2.037v4.076L284.041,134.447z M284.041,130.081v-17.228
			l3.529-2.037v17.228L284.041,130.081z M287.57,263.952v17.224l-3.529,2.037v-17.224L287.57,263.952z M287.822,263.807
			l14.909-8.608v17.224l-14.909,8.607V263.807z M302.982,255.054l3.529-2.037v17.224l-3.529,2.037V255.054z M306.762,252.872
			l14.909-8.608v17.225l-14.909,8.607V252.872z M321.922,244.119l3.528-2.037v17.225l-3.528,2.037V244.119z M325.702,241.936
			l14.909-8.608v17.225l-14.909,8.607V241.936z M340.862,233.183l3.529-2.037v17.225l-3.529,2.037V233.183z M344.643,231.001
			l14.909-8.608v17.226l-14.909,8.607V231.001z M359.803,222.248l3.529-2.037v17.226l-3.529,2.037V222.248z M359.803,86.339V69.111
			l3.529-2.037v17.228L359.803,86.339z M363.583,215.699l14.914-8.611v4.076l-14.914,8.611V215.699z M363.583,215.408V198.19
			l14.914-8.611v17.219L363.583,215.408z M363.583,197.899v-4.075l14.914-8.611v4.075L363.583,197.899z M363.583,193.534v-17.218
			l14.914-8.611v17.219L363.583,193.534z M363.583,176.025v-4.076l14.914-8.611v4.076L363.583,176.025z M363.583,171.658V154.44
			l14.914-8.611v17.219L363.583,171.658z M363.583,154.149v-4.076l14.914-8.611v4.076L363.583,154.149z M363.583,149.783v-17.218
			l14.914-8.611v17.218L363.583,149.783z M363.583,132.274v-4.075l14.914-8.611v4.075L363.583,132.274z M363.583,127.908v-17.218
			l14.914-8.611v17.218L363.583,127.908z M363.583,110.398v-4.076l14.914-8.611v4.076L363.583,110.398z M363.583,106.032V88.814
			l14.914-8.611v17.218L363.583,106.032z M363.583,88.523v-4.075l14.914-8.611v4.075L363.583,88.523z M283.79,112.998v17.228
			l-14.918,8.613l0.005-17.231L283.79,112.998z M268.833,274.77l14.957-8.636v17.223l-14.962,8.638L268.833,274.77z
			 M363.583,237.292v-17.226l14.914-8.611v17.227L363.583,237.292z"/>
		<g style="opacity:0.25;">
			<polygon style="fill:#BA68C8;" points="268.877,121.607 321.671,91.127 321.671,261.488 268.872,291.972 			"/>
			<polygon style="fill:#BA68C8;" points="325.702,88.799 340.611,80.192 340.611,250.553 325.702,259.161 			"/>
			<polygon style="fill:#BA68C8;" points="344.643,77.864 378.496,58.319 378.496,228.68 344.638,248.229 			"/>
		</g>
	</g>
</g>
<g id="Tools">
	<g id="Arrow_3_">
		<path style="fill:#BA68C8;" d="M173.762,54.049l-21.171-25.363c-0.134-0.161-0.263-0.274-0.382-0.344
			c-0.432-0.25-6.151-3.574-6.27-3.643c-0.434-0.254-0.745,0.084-0.747,0.916l-0.112,51.256c-0.001,0.434,0.068,0.684,0.185,0.754
			c0.169,0.1,6.157,3.579,6.275,3.647c0.169,0.096,0.438-0.183,0.74-0.83l3.027-6.477l1.52,5.437
			c0.082,0.292,0.223,0.493,0.404,0.603c0.415,0.253,6.068,3.5,6.256,3.609c0.415,0.239,1.032,0.016,1.622-0.662l2.932-3.369
			c0.859-0.987,1.337-2.565,1.068-3.524l-4.003-14.289c-0.269-0.959,0.482-2.175,1.676-2.715l5.936-2.683
			C173.916,55.831,174.382,54.792,173.762,54.049z"/>
		<path style="fill:#BA68C8;" d="M173.762,54.049l-21.171-25.363c-0.134-0.161-0.263-0.274-0.382-0.344
			c-0.432-0.25-6.151-3.574-6.27-3.643c-0.434-0.254-0.745,0.084-0.747,0.916l-0.112,51.256c-0.001,0.434,0.068,0.684,0.185,0.754
			c0.169,0.1,6.157,3.579,6.275,3.647c0.169,0.096,0.438-0.183,0.74-0.83l3.027-6.477l1.52,5.437
			c0.082,0.292,0.223,0.493,0.404,0.603c0.415,0.253,6.068,3.5,6.256,3.609c0.415,0.239,1.032,0.016,1.622-0.662l2.932-3.369
			c0.859-0.987,1.337-2.565,1.068-3.524l-4.003-14.289c-0.269-0.959,0.482-2.175,1.676-2.715l5.936-2.683
			C173.916,55.831,174.382,54.792,173.762,54.049z"/>
		<path style="opacity:0.4;fill:#FFFFFF;" d="M173.762,54.049l-21.171-25.363c-0.134-0.161-0.263-0.274-0.382-0.344
			c-0.432-0.25-6.151-3.574-6.27-3.643c-0.434-0.254-0.745,0.084-0.747,0.916l-0.112,51.256c-0.001,0.434,0.068,0.684,0.185,0.754
			c0.169,0.1,6.157,3.579,6.275,3.647c0.169,0.096,0.438-0.183,0.74-0.83l3.027-6.477l1.52,5.437
			c0.082,0.292,0.223,0.493,0.404,0.603c0.415,0.253,6.068,3.5,6.256,3.609c0.415,0.239,1.032,0.016,1.622-0.662l2.932-3.369
			c0.859-0.987,1.337-2.565,1.068-3.524l-4.003-14.289c-0.269-0.959,0.482-2.175,1.676-2.715l5.936-2.683
			C173.916,55.831,174.382,54.792,173.762,54.049z"/>
		<path id="XMLID_955_" style="fill:#BA68C8;" d="M151.353,80.517l0.112-51.256c0.002-1.06,0.507-1.317,1.126-0.575l21.171,25.363
			c0.62,0.743,0.154,1.782-1.041,2.322l-5.936,2.683c-1.195,0.54-1.945,1.755-1.676,2.715l4.003,14.289
			c0.269,0.959-0.21,2.537-1.068,3.524l-2.932,3.369c-0.859,0.987-1.773,1.009-2.042,0.05l-4.003-14.289
			c-0.269-0.959-0.904-0.845-1.419,0.256l-5.365,11.473C151.767,81.543,151.351,81.576,151.353,80.517z"/>
		<path id="XMLID_954_" style="opacity:0.8;fill:#FFFFFF;" d="M151.353,80.517l0.112-51.256c0.002-1.06,0.507-1.317,1.126-0.575
			l21.171,25.363c0.62,0.743,0.154,1.782-1.041,2.322l-5.936,2.683c-1.195,0.54-1.945,1.755-1.676,2.715l4.003,14.289
			c0.269,0.959-0.21,2.537-1.068,3.524l-2.932,3.369c-0.859,0.987-1.773,1.009-2.042,0.05l-4.003-14.289
			c-0.269-0.959-0.904-0.845-1.419,0.256l-5.365,11.473C151.767,81.543,151.351,81.576,151.353,80.517z"/>
		<path style="opacity:0.15;" d="M163.403,83.56c-0.647-0.369-5.779-3.32-6.174-3.555c-0.177-0.109-0.319-0.311-0.403-0.605
			l-1.514-5.432l2.338-4.997c0.512-1.1,1.151-1.218,1.419-0.26l3.998,14.287C163.143,83.258,163.252,83.442,163.403,83.56z"/>
	</g>
	<g id="Pentool_1_">
		<g id="XMLID_981_">
			<g id="XMLID_3234_">
				<path id="XMLID_3235_" style="fill:#BA68C8;" d="M439.044,170.962c-1.056,0.61-1.915,2.249-1.915,3.658
					c0,1.256,0.684,1.907,1.579,1.601v26.657l-9.715-20.386c-0.163-0.341-0.169-0.897-0.02-1.244
					c2.453-5.677,4.264-12.072,4.881-18.634c0.035-0.376,0.325-0.835,0.652-1.023l9.076-5.24c0.327-0.189,0.619-0.037,0.659,0.339
					c0.609,5.676,2.347,9.889,4.702,12.723c0.242,0.291,0.359,0.808,0.248,1.17c-1.365,4.439-9.236,30.039-9.811,31.908v-26.657
					c0.897-0.73,1.579-2.167,1.579-3.423C440.96,170.997,440.103,170.352,439.044,170.962z"/>
			</g>
			<path id="XMLID_3233_" style="fill:#BA68C8;" d="M453.638,173.148l-9.811,31.908l-0.67-0.389v0.777l-4.449-2.566l-9.715-20.386
				c-0.163-0.341-0.169-0.897-0.02-1.244c2.453-5.677,4.264-12.072,4.881-18.634c0.035-0.376,0.325-0.835,0.652-1.023l9.076-5.24
				c0.327-0.189,0.858-0.189,1.185,0l3.262,1.883c0.327,0.189,0.619,0.647,0.66,1.023c0.609,5.679,2.346,9.892,4.702,12.723
				C453.632,172.269,453.749,172.787,453.638,173.148z"/>
			<path id="XMLID_3232_" style="opacity:0.4;fill:#FFFFFF;" d="M453.638,173.148l-9.811,31.908l-0.67-0.389v0.777l-4.449-2.566
				l-9.715-20.386c-0.163-0.341-0.169-0.897-0.02-1.244c2.453-5.677,4.264-12.072,4.881-18.634c0.035-0.376,0.325-0.835,0.652-1.023
				l9.076-5.24c0.327-0.189,0.858-0.189,1.185,0l3.262,1.883c0.327,0.189,0.619,0.647,0.66,1.023
				c0.609,5.679,2.346,9.892,4.702,12.723C453.632,172.269,453.749,172.787,453.638,173.148z"/>
			<path id="XMLID_2977_" style="opacity:0.15;" d="M445.406,174.976c0,1.259-0.681,2.695-1.579,3.423v26.657l-0.67-0.389l0,0.777
				v-26.656c-0.897,0.306-1.579-0.342-1.579-1.598c0-1.412,0.857-3.051,1.915-3.661C444.55,172.918,445.406,173.567,445.406,174.976
				z"/>
			<g id="XMLID_2959_">
				<path id="XMLID_2967_" style="fill:#BA68C8;" d="M453.638,173.148l-9.811,31.908v-26.657c0.897-0.728,1.579-2.164,1.579-3.423
					c0-1.409-0.857-2.058-1.913-1.447c-1.059,0.61-1.915,2.249-1.915,3.661c0,1.256,0.681,1.904,1.579,1.598v26.656l-9.718-20.383
					c-0.163-0.341-0.17-0.897-0.02-1.244c2.453-5.677,4.267-12.072,4.884-18.637c0.035-0.376,0.325-0.835,0.652-1.024l9.073-5.24
					c0.327-0.189,0.619-0.037,0.659,0.339c0.609,5.679,2.346,9.892,4.702,12.723C453.632,172.269,453.749,172.787,453.638,173.148z"
					/>
			</g>
			<g id="XMLID_2925_" style="opacity:0.8;">
				<path id="XMLID_2926_" style="fill:#FFFFFF;" d="M453.638,173.148l-9.811,31.908v-26.657c0.897-0.728,1.579-2.164,1.579-3.423
					c0-1.409-0.857-2.058-1.913-1.447c-1.059,0.61-1.915,2.249-1.915,3.661c0,1.256,0.681,1.904,1.579,1.598v26.656l-9.718-20.383
					c-0.163-0.341-0.17-0.897-0.02-1.244c2.453-5.677,4.267-12.072,4.884-18.637c0.035-0.376,0.325-0.835,0.652-1.024l9.073-5.24
					c0.327-0.189,0.619-0.037,0.659,0.339c0.609,5.679,2.346,9.892,4.702,12.723C453.632,172.269,453.749,172.787,453.638,173.148z"
					/>
			</g>
			<path id="XMLID_2872_" style="opacity:0.15;" d="M448.67,159.16c-0.074-0.306-0.345-0.416-0.64-0.243l-9.076,5.24
				c-0.181,0.104-0.348,0.29-0.468,0.501l-4.446-2.569c0.12-0.208,0.287-0.394,0.465-0.498l9.076-5.24
				c0.328-0.189,0.859-0.189,1.188,0l3.259,1.882C448.328,158.405,448.599,158.805,448.67,159.16z"/>
			<g id="XMLID_984_">
				<path id="XMLID_2869_" style="fill:#37474F;" d="M431.858,153.452l14.375-8.301c0.327-0.189,0.858-0.189,1.185,0l3.262,1.884
					c0.327,0.189,0.592,0.648,0.592,1.026v6.333c0,0.378-0.265,0.837-0.592,1.026l-14.375,8.301c-0.327,0.189-0.858,0.189-1.185,0
					l-3.262-1.884c-0.327-0.189-0.592-0.648-0.592-1.026v-6.334C431.265,154.101,431.53,153.641,431.858,153.452z"/>
				<path id="XMLID_2868_" style="fill:#455A64;" d="M451.267,147.966c-0.041-0.306-0.29-0.419-0.588-0.246l-14.374,8.299
					c-0.164,0.093-0.312,0.257-0.419,0.443l-4.449-2.567c0.11-0.186,0.257-0.35,0.421-0.443l14.374-8.302
					c0.328-0.189,0.857-0.189,1.185,0l3.262,1.885C450.98,147.208,451.229,147.611,451.267,147.966z"/>
				<path id="XMLID_985_" style="fill:#263238;" d="M436.209,163.768c-0.006,0.003-0.008,0.003-0.014,0.005
					c-0.011,0.003-0.022,0.008-0.036,0.011c-0.011,0.008-0.025,0.011-0.038,0.016c-0.019,0.008-0.038,0.014-0.057,0.016
					c-0.022,0.006-0.047,0.011-0.071,0.016c-0.014,0.003-0.03,0.006-0.049,0.008c-0.033,0.005-0.068,0.011-0.101,0.014
					c-0.254,0.025-0.525-0.019-0.722-0.134l-3.262-1.883c-0.328-0.189-0.594-0.648-0.594-1.026v-6.335
					c0-0.189,0.066-0.397,0.172-0.583l4.449,2.567c-0.109,0.186-0.175,0.394-0.175,0.583v6.334c0,0.268,0.134,0.424,0.328,0.424
					c0.027,0,0.055-0.003,0.085-0.011C436.152,163.787,436.179,163.779,436.209,163.768z"/>
			</g>
			<path id="XMLID_983_" style="opacity:0.15;" d="M443.157,205.443l-4.449-2.566l-9.714-20.385
				c-0.074-0.156-0.115-0.356-0.126-0.561l4.446,2.567c0.008,0.205,0.052,0.408,0.126,0.564L443.157,205.443z"/>
			<path id="XMLID_982_" style="opacity:0.15;" d="M443.827,178.399v26.657l-0.67-0.389v0.777l0-26.656
				c-0.897,0.306-1.58-0.341-1.58-1.597c0-0.03,0-0.057,0.003-0.087L443.827,178.399z"/>
		</g>
		<g id="XMLID_958_">
			<path id="XMLID_980_" style="fill:#455A64;" d="M464.376,170.733c0-0.724-0.508-1.018-1.135-0.655
				c-0.627,0.362-1.135,1.242-1.135,1.966c0,0.587,0.336,0.883,0.796,0.785c-0.639,13.391-10.013,29.172-21.448,35.773
				c-5.682,3.28-11.008,3.818-14.997,1.516c-3.767-2.176-5.934-6.653-6.164-12.67c0.468-0.432,0.811-1.125,0.811-1.718
				c0-0.724-0.508-1.018-1.135-0.656c-0.627,0.362-1.135,1.243-1.135,1.967c0,0.618,0.372,0.918,0.87,0.769
				c0.306,6.063,2.569,10.59,6.452,12.831c1.723,0.995,3.676,1.489,5.787,1.489c3.017,0,6.357-1.008,9.814-3.004
				c11.697-6.753,21.267-22.977,21.764-36.631C464.011,172.067,464.376,171.346,464.376,170.733z"/>
			<path id="XMLID_979_" style="fill:#455A64;" d="M463.24,195.118c-0.522,0.301-0.957,0.961-1.09,1.592l-41.106,23.733
				c-0.146-0.444-0.57-0.585-1.077-0.292c-0.627,0.362-1.135,1.242-1.135,1.967c0,0.724,0.508,1.018,1.135,0.656
				c0.537-0.31,0.984-1.001,1.103-1.647l41.081-23.718c0.133,0.477,0.568,0.634,1.089,0.333c0.627-0.362,1.135-1.243,1.135-1.967
				C464.376,195.049,463.867,194.756,463.24,195.118z"/>
			<path id="XMLID_978_" style="fill:#455A64;" d="M421.553,196.368c0,0.891-0.723,1.614-1.614,1.614
				c-0.891,0-1.614-0.723-1.614-1.614c0-0.892,0.723-1.614,1.614-1.614C420.83,194.754,421.553,195.476,421.553,196.368z"/>
			<circle id="XMLID_977_" style="fill:#455A64;" cx="419.877" cy="221.43" r="1.614"/>
			<path id="XMLID_976_" style="fill:#455A64;" d="M464.945,196.47c0,0.891-0.723,1.614-1.614,1.614
				c-0.892,0-1.614-0.723-1.614-1.614s0.723-1.614,1.614-1.614C464.223,194.856,464.945,195.579,464.945,196.47z"/>
			<circle id="XMLID_965_" style="fill:#455A64;" cx="463.183" cy="171.356" r="1.614"/>
		</g>
	</g>
	<g id="Text_Tool">
		<g id="XMLID_3497_">
			<path style="fill:#BA68C8;" d="M459.146,269.336v18.3l-1.662,0.928c0,0,0-2.66,0-5.77c0-3.11-2.533-4.169-5.656-2.365
				l-7.765,4.483v33.003c0,3.607,2.207,5.257,4.928,3.685c2.494-1.44,4.502-2.599,4.821-2.783l0.049-0.029l5.283,3.05l-26.414,15.25
				l-3.565-2.058l-1.718,0.992v-1.983l4.871-2.813c2.722-1.572,4.928-5.769,4.928-9.376v-33.003l-7.764,4.483
				c-3.124,1.803-5.656,5.786-5.656,8.896v5.77l-1.662,0.991v-18.3L459.146,269.336z"/>
			<path style="opacity:0.2;fill:#FFFFFF;" d="M459.146,269.336v18.3l-1.662,0.928c0,0,0-2.66,0-5.77
				c0-3.11-2.533-4.169-5.656-2.365l-7.765,4.483v33.003c0,3.607,2.207,5.257,4.928,3.685c2.494-1.44,4.502-2.599,4.821-2.783
				l0.049-0.029l5.283,3.05l-26.414,15.25l-3.565-2.058l-1.718,0.992v-1.983l4.871-2.813c2.722-1.572,4.928-5.769,4.928-9.376
				v-33.003l-7.764,4.483c-3.124,1.803-5.656,5.786-5.656,8.896v5.77l-1.662,0.991v-18.3L459.146,269.336z"/>
		</g>
		<polygon style="fill:#BA68C8;" points="462.768,291.615 457.485,288.565 457.485,279.446 462.768,280.449 		"/>
		<g id="XMLID_3493_">
			<path style="fill:#BA68C8;" d="M464.429,272.387v18.3l-1.662,0.928c0,0,0-2.66,0-5.77c0-3.11-2.533-4.169-5.656-2.365
				l-7.765,4.483v33.003c0,3.607,2.207,5.257,4.928,3.685c2.722-1.571,4.871-2.812,4.871-2.812v1.983l-26.414,15.25v-1.983
				l4.871-2.813c2.722-1.572,4.928-5.769,4.928-9.376v-33.003l-7.764,4.483c-3.124,1.803-5.656,5.786-5.656,8.896v5.77l-1.662,0.991
				v-18.3L464.429,272.387z"/>
			<path style="opacity:0.5;fill:#FFFFFF;" d="M464.429,272.387v18.3l-1.662,0.928c0,0,0-2.66,0-5.77
				c0-3.11-2.533-4.169-5.656-2.365l-7.765,4.483v33.003c0,3.607,2.207,5.257,4.928,3.685c2.722-1.571,4.871-2.812,4.871-2.812
				v1.983l-26.414,15.25v-1.983l4.871-2.813c2.722-1.572,4.928-5.769,4.928-9.376v-33.003l-7.764,4.483
				c-3.124,1.803-5.656,5.786-5.656,8.896v5.77l-1.662,0.991v-18.3L464.429,272.387z"/>
		</g>
		<g id="XMLID_3489_">
			<polygon style="fill:#BA68C8;" points="459.147,269.336 464.429,272.387 427.45,293.737 422.167,290.687 			"/>
			<polygon style="opacity:0.7;fill:#FFFFFF;" points="459.147,269.336 464.429,272.387 427.45,293.737 422.167,290.687 			"/>
		</g>
		<g id="XMLID_3458_">
			<polygon style="fill:#BA68C8;" points="422.167,290.687 427.45,293.737 427.45,312.037 422.167,308.987 			"/>
			<polygon style="opacity:0.2;fill:#FFFFFF;" points="422.167,290.687 427.45,293.737 427.45,312.037 422.167,308.987 			"/>
		</g>
		<polygon style="fill:#BA68C8;" points="427.449,334.039 432.732,337.089 432.732,339.072 427.449,336.022 		"/>
	</g>
</g>
<g id="Golden_Ratio_Box_1_">
	<g id="Golden_Ratio_Box">
		<g id="Box">
			<g>
				<polygon style="fill:#FFFFFF;" points="37.132,79.539 124.546,29.057 124.546,105.305 37.079,155.816 				"/>
				<path style="fill:#BA68C8;" d="M124.215,29.628v75.486L37.41,155.243l0.052-75.512L124.215,29.628 M124.876,28.484
					L36.802,79.349l-0.053,77.038l88.127-50.891V28.484L124.876,28.484z"/>
			</g>
			<polygon style="fill:#BA68C8;" points="36.802,79.349 34.041,77.757 122.115,26.893 124.876,28.485 			"/>
			<polygon style="opacity:0.4;fill:#FFFFFF;" points="36.802,79.349 34.041,77.757 122.115,26.893 124.876,28.485 			"/>
			<polygon style="fill:#BA68C8;" points="36.802,79.349 36.749,156.387 34.068,154.839 34.041,77.757 36.749,79.316 			"/>
		</g>
		<g id="Golden_Ratio_1_">
			<g>
				<g>
					<path style="fill:#BA68C8;" d="M71.523,129.556V66.915l0.061-0.035l46.957-27.11v62.641l-0.061,0.035L71.523,129.556z
						 M71.765,67.055v62.083l46.535-26.867V40.188L71.765,67.055z"/>
				</g>
				<g>
					<path style="fill:#BA68C8;" d="M42.623,146.241v-62.64l0.061-0.035l29.081-16.79v62.641l-0.061,0.035L42.623,146.241z
						 M42.864,83.741v62.083l28.659-16.546V67.194L42.864,83.741z"/>
				</g>
				<g>
					<path style="fill:#BA68C8;" d="M42.623,122.413V83.601l0.061-0.035l29.081-16.79v38.813l-0.061,0.035L42.623,122.413z
						 M42.864,83.741v38.255l28.659-16.546V67.194L42.864,83.741z"/>
				</g>
				<g>
					<path style="fill:#BA68C8;" d="M42.623,146.241v-24.107l0.061-0.035l18.052-10.422v24.107l-0.061,0.035L42.623,146.241z
						 M42.864,122.274v23.549l17.63-10.178v-23.549L42.864,122.274z"/>
				</g>
				<g>
					<path style="fill:#BA68C8;" d="M60.495,135.924v-14.984l0.061-0.035l11.209-6.472v14.984l-0.061,0.035L60.495,135.924z
						 M60.736,121.079v14.427l10.787-6.229V114.85L60.736,121.079z"/>
				</g>
				<g>
					<path style="fill:#BA68C8;" d="M64.682,118.8v-9.401l0.061-0.035l7.022-4.055v9.401l-0.061,0.035L64.682,118.8z
						 M64.924,109.539v8.844l6.6-3.811v-8.844L64.924,109.539z"/>
				</g>
				<g>
					<path style="fill:#BA68C8;" d="M60.495,117.679v-5.862l0.061-0.035l4.368-2.522v5.862l-0.061,0.035L60.495,117.679z
						 M60.736,111.956v5.304l3.946-2.279v-5.304L60.736,111.956z"/>
				</g>
			</g>
			<g>
				<path style="fill:#455A64;" d="M53.724,138.012c-1.723,0-3.349-0.421-4.814-1.266c-4.072-2.351-6.407-7.651-6.407-14.541
					c0-21.324,13.018-46.189,29.021-55.428c11.501-6.64,22.113-7.533,30.685-2.582c10.457,6.037,16.454,19.941,16.454,38.147h-0.483
					c0-18.029-5.909-31.781-16.211-37.73c-8.415-4.86-18.86-3.967-30.203,2.582c-15.87,9.162-28.78,33.84-28.78,55.01
					c0,6.713,2.247,11.861,6.166,14.123c3.198,1.846,7.227,1.555,11.344-0.822c6.422-3.708,10.908-12.288,10.908-20.864
					c0-2.5-0.835-4.416-2.29-5.256c-1.188-0.686-2.676-0.581-4.189,0.293c-2.508,1.448-4.067,4.434-4.067,7.792
					c0,0.882,0.316,1.591,0.846,1.897c0.413,0.238,0.91,0.205,1.435-0.098l0.241,0.418c-0.671,0.388-1.353,0.424-1.918,0.098
					c-0.681-0.393-1.088-1.258-1.088-2.315c0-3.53,1.651-6.675,4.308-8.21c1.671-0.964,3.33-1.067,4.672-0.293
					c1.608,0.929,2.531,2.997,2.531,5.674c0,8.741-4.585,17.492-11.149,21.282C58.33,137.313,55.946,138.012,53.724,138.012z"/>
			</g>
		</g>
	</g>
</g>
<g id="Grid_Box">
	<g id="Grid">
		<g id="Box_2_">
			<g>
				<polygon style="fill:#FFFFFF;" points="144.103,337.982 228.972,288.983 228.972,386.995 144.038,436.027 				"/>
				<path style="fill:#BA68C8;" d="M228.571,289.678v97.085l-84.13,48.568l0.064-97.117L228.571,289.678 M229.374,288.289
					l-85.672,49.462l-0.064,98.97l85.736-49.495L229.374,288.289L229.374,288.289z"/>
			</g>
			<polygon style="fill:#BA68C8;" points="143.702,337.751 140.348,335.817 226.019,286.355 229.374,288.289 			"/>
			<polygon style="opacity:0.4;fill:#FFFFFF;" points="143.702,337.751 140.348,335.817 226.019,286.355 229.374,288.289 			"/>
			<polygon style="fill:#BA68C8;" points="143.702,337.751 143.637,436.721 140.38,434.84 140.348,335.817 			"/>
		</g>
		<g>
			<g>
				<path style="fill:#E0E0E0;" d="M148.168,428.941v-88.613l0.146-0.085l76.591-44.219l-0.002,88.613l-0.146,0.085L148.168,428.941
					z M148.753,340.667v87.26l75.566-43.626l0.002-87.261L148.753,340.667z"/>
			</g>
			<g>
				<rect x="167.207" y="329.507" style="fill:#E0E0E0;" width="0.585" height="87.936"/>
			</g>
			<g>
				<rect x="186.246" y="318.515" style="fill:#E0E0E0;" width="0.585" height="87.937"/>
			</g>
			<g>
				<rect x="205.285" y="307.523" style="fill:#E0E0E0;" width="0.585" height="87.938"/>
			</g>
			<g>
				
					<rect x="142.568" y="340.194" transform="matrix(0.8662 -0.4997 0.4997 0.8662 -145.1798 138.7823)" style="fill:#E0E0E0;" width="87.983" height="0.586"/>
			</g>
			<g>
				
					<rect x="142.563" y="362.18" transform="matrix(0.8663 -0.4996 0.4996 0.8663 -156.1343 141.671)" style="fill:#E0E0E0;" width="87.983" height="0.585"/>
			</g>
			<g>
				
					<rect x="142.561" y="384.164" transform="matrix(0.8662 -0.4996 0.4996 0.8662 -167.1377 144.6399)" style="fill:#E0E0E0;" width="87.982" height="0.585"/>
			</g>
		</g>
		<g>
			<g>
				<g>
					<rect x="153.132" y="337.75" style="fill:#E0E0E0;" width="0.177" height="87.936"/>
				</g>
				<g>
					<rect x="157.892" y="335.002" style="fill:#E0E0E0;" width="0.177" height="87.936"/>
				</g>
				<g>
					<rect x="162.652" y="332.254" style="fill:#E0E0E0;" width="0.177" height="87.934"/>
				</g>
			</g>
			<g>
				<g>
					<rect x="172.17" y="326.759" style="fill:#E0E0E0;" width="0.177" height="87.936"/>
				</g>
				<g>
					<rect x="176.93" y="324.011" style="fill:#E0E0E0;" width="0.177" height="87.936"/>
				</g>
				<g>
					<rect x="181.69" y="321.263" style="fill:#E0E0E0;" width="0.177" height="87.933"/>
				</g>
			</g>
			<g>
				<g>
					<rect x="191.208" y="315.768" style="fill:#E0E0E0;" width="0.177" height="87.936"/>
				</g>
				<g>
					<rect x="195.967" y="313.02" style="fill:#E0E0E0;" width="0.177" height="87.936"/>
				</g>
				<g>
					<rect x="200.727" y="310.272" style="fill:#E0E0E0;" width="0.177" height="87.933"/>
				</g>
			</g>
			<g>
				<g>
					<rect x="210.245" y="304.776" style="fill:#E0E0E0;" width="0.177" height="87.936"/>
				</g>
				<g>
					<rect x="215.004" y="302.029" style="fill:#E0E0E0;" width="0.177" height="87.936"/>
				</g>
				<g>
					<rect x="219.765" y="299.281" style="fill:#E0E0E0;" width="0.177" height="87.933"/>
				</g>
			</g>
		</g>
		<g>
			<g>
				<g>
					<polygon style="fill:#E0E0E0;" points="148.528,346.083 148.441,345.931 224.613,301.977 224.701,302.129 					"/>
				</g>
				<g>
					<polygon style="fill:#E0E0E0;" points="148.528,351.554 148.441,351.402 224.613,307.447 224.701,307.599 					"/>
				</g>
				<g>
					<polygon style="fill:#E0E0E0;" points="148.528,357.025 148.441,356.873 224.613,312.918 224.701,313.07 					"/>
				</g>
			</g>
			<g>
				<g>
					<polygon style="fill:#E0E0E0;" points="148.528,368.061 148.441,367.909 224.613,323.954 224.701,324.106 					"/>
				</g>
				<g>
					<polygon style="fill:#E0E0E0;" points="148.528,373.531 148.441,373.379 224.613,329.425 224.701,329.577 					"/>
				</g>
				<g>
					<polygon style="fill:#E0E0E0;" points="148.528,379.002 148.441,378.85 224.613,334.895 224.701,335.047 					"/>
				</g>
			</g>
			<g>
				<g>
					<polygon style="fill:#E0E0E0;" points="148.528,390.038 148.441,389.886 224.613,345.931 224.701,346.083 					"/>
				</g>
				<g>
					<polygon style="fill:#E0E0E0;" points="148.528,395.509 148.441,395.357 224.613,351.402 224.701,351.554 					"/>
				</g>
				<g>
					<polygon style="fill:#E0E0E0;" points="148.528,400.979 148.441,400.828 224.613,356.873 224.701,357.025 					"/>
				</g>
			</g>
			<g>
				<g>
					<polygon style="fill:#E0E0E0;" points="148.528,412.016 148.441,411.864 224.613,367.909 224.701,368.061 					"/>
				</g>
				<g>
					<polygon style="fill:#E0E0E0;" points="148.528,417.486 148.441,417.334 224.613,373.379 224.701,373.531 					"/>
				</g>
				<g>
					<polygon style="fill:#E0E0E0;" points="148.528,422.957 148.441,422.805 224.613,378.85 224.701,379.002 					"/>
				</g>
			</g>
		</g>
		<g>
			<polygon style="fill:#E0E0E0;" points="207.071,328.644 205.577,331.808 204.082,330.37 205.577,327.206 			"/>
			<polygon style="fill:#E0E0E0;" points="207.071,350.615 205.577,353.779 204.082,352.341 205.577,349.177 			"/>
			<polygon style="fill:#E0E0E0;" points="207.071,372.586 205.577,375.75 204.082,374.312 205.577,371.148 			"/>
		</g>
		<g>
			<polygon style="fill:#E0E0E0;" points="188.065,339.628 186.57,342.791 185.076,341.353 186.57,338.189 			"/>
			<polygon style="fill:#E0E0E0;" points="188.065,361.599 186.57,364.762 185.076,363.324 186.57,360.16 			"/>
			<polygon style="fill:#E0E0E0;" points="188.065,383.569 186.57,386.733 185.076,385.295 186.57,382.131 			"/>
		</g>
		<g>
			<polygon style="fill:#E0E0E0;" points="169.059,350.611 167.564,353.775 166.07,352.336 167.564,349.173 			"/>
			<polygon style="fill:#E0E0E0;" points="169.059,372.582 167.564,375.746 166.07,374.307 167.564,371.144 			"/>
			<polygon style="fill:#E0E0E0;" points="169.059,394.553 167.564,397.717 166.07,396.279 167.564,393.115 			"/>
		</g>
	</g>
</g>
<g id="Pencil_2_">
	<g id="Pencil">
		<path id="Shadow_17_" style="fill:#E0E0E0;" d="M187.191,469.223l12.523-14.234l122.729-71.028
			c3.287-2.248,8.216,2.312,10.134,6.904c0.001,0.002,0.002,0.004,0.003,0.005c0.301,0.721,0.534,1.444,0.669,2.141
			c0.37,1.906,0.049,3.629-1.366,4.601c0,0-123.807,71.64-123.809,71.643l-18.272,3.615l-4.971,0.983
			c-0.253,0.051-0.475-0.031-0.63-0.178c-0.258-0.245-0.331-0.677-0.049-0.999L187.191,469.223z"/>
		<g id="Pencil_1_">
			<path id="XMLID_3243_" style="fill:#455A64;" d="M316.605,399.541l-1.707,0.978l-2.054,1.189l-107.123,62.013
				c0.639-1.434,0.137-4.296-1.326-7.043c-1.705-3.2-4.313-5.732-6.201-5.827l106.576-61.7l3.936-2.258
				C306.24,388.498,314.108,401.116,316.605,399.541z"/>
			<g>
				<path id="XMLID_3242_" style="fill:#EBEBEB;" d="M304.948,389.039l3.814-2.179c1.085-0.668,3.142,1.281,4.943,3.858
					c2.402,3.417,4.35,7.943,2.914,8.831l-2.809,1.612l-1.014,0.558c1.435-0.889-0.51-5.415-2.911-8.833
					c-1.729-2.468-3.706-4.362-4.812-3.905l-0.012,0.007C305.021,388.995,304.986,389.012,304.948,389.039z"/>
				<path id="XMLID_3241_" style="fill:#BA68C8;" d="M305.905,388.504c2.516-1.558,10.368,11.124,7.852,12.682l-3.81,2.194
					c2.515-1.558-5.336-14.238-7.851-12.681L305.905,388.504z"/>
				<path id="XMLID_3240_" style="fill:#EBEBEB;" d="M298.465,392.788l3.761-2.167c2.46-1.547,10.159,10.62,8.073,12.556
					c-0.032,0.038-0.082,0.071-0.131,0.105l-3.806,2.153C308.829,403.832,300.961,391.214,298.465,392.788z"/>
			</g>
			<path style="fill:#F28F8F;" d="M308.71,386.87c-0.001,0.027-0.001,0.027-0.001,0.027l0.056-0.025
				c1.077-0.693,3.131,1.271,4.936,3.856c2.375,3.354,4.315,7.787,2.978,8.77l15.899-9.137c1.278-0.876,1.568-2.43,1.236-4.15
				c-0.886-4.632-6.306-10.518-9.74-8.174L308.71,386.87z"/>
			<g>
				<path id="XMLID_3239_" style="fill:#F28F8F;" d="M188.049,464.314c1.313,1.779,1.182,2.652,1.182,2.652l16.487-3.245
					c1.638-2.5,0.562-6.555-1.703-9.447l-0.723,0.408L188.049,464.314z"/>
				<path id="XMLID_3238_" style="fill:#37474F;" d="M184.745,467.849l4.486-0.883c0,0,0.203-0.868-1.182-2.652l-3.914,2.473l0,0
					c-0.255,0.29-0.189,0.679,0.043,0.9C184.317,467.821,184.518,467.894,184.745,467.849z"/>
				<path id="XMLID_3237_" style="fill:#FFA8A7;" d="M198.207,450.845l-0.012,0.007l0,0l-0.005-0.008l-11.309,12.83
					c0.444,0.076,0.87,0.302,1.17,0.639l15.244-9.632l0.723-0.408C202.471,452.3,200.373,450.871,198.207,450.845z"/>
				<path id="XMLID_3236_" style="fill:#455A64;" d="M188.049,464.314c-0.307-0.448-0.949-0.68-1.17-0.639l-2.745,3.112
					L188.049,464.314z"/>
			</g>
			<path style="opacity:0.2;" d="M204.016,454.274l128.19-71.926c0.781,1.254,1.365,2.604,1.603,3.863
				c0.34,1.728,0.04,3.266-1.238,4.146l-15.966,9.184l-1.707,0.978l-2.054,1.189l-107.123,62.013
				C207.728,460.62,205.525,456.036,204.016,454.274z"/>
		</g>
	</g>
</g>
<g id="Text_box">
	<g id="Text_Box">
		<g id="Box_4_">
			<g>
				<polygon style="fill:#FFFFFF;" points="281.854,191.051 335.016,160.314 335.016,269.353 281.802,300.118 				"/>
				<path style="fill:#BA68C8;" d="M334.685,160.886v108.277l-52.553,30.383l0.052-108.303L334.685,160.886 M335.346,159.742
					l-53.822,31.119l-0.053,109.829l53.874-31.146V159.742L335.346,159.742z"/>
			</g>
			<polygon style="fill:#BA68C8;" points="281.524,190.861 278.763,189.269 332.585,158.15 335.346,159.743 			"/>
			<polygon style="opacity:0.4;fill:#FFFFFF;" points="281.524,190.861 278.763,189.269 332.585,158.15 335.346,159.743 			"/>
			<polygon style="fill:#BA68C8;" points="281.524,190.861 281.471,300.69 278.79,299.141 278.763,189.269 281.471,190.828 			"/>
		</g>
		<g id="Text">
			<g>
				<path style="fill:#E0E0E0;" d="M290.294,193.277c-0.166,0-0.329-0.086-0.418-0.241c-0.133-0.231-0.054-0.526,0.177-0.659
					l39.183-22.622c0.228-0.132,0.524-0.055,0.659,0.177c0.133,0.231,0.054,0.526-0.177,0.659l-39.183,22.622
					C290.459,193.256,290.376,193.277,290.294,193.277z"/>
			</g>
			<g>
				<path style="fill:#E0E0E0;" d="M286.376,200.063c-0.166,0-0.329-0.086-0.418-0.241c-0.133-0.231-0.054-0.526,0.177-0.659
					l43.101-24.884c0.228-0.133,0.524-0.056,0.659,0.177c0.133,0.231,0.054,0.526-0.177,0.659l-43.101,24.884
					C286.541,200.042,286.459,200.063,286.376,200.063z"/>
			</g>
			<g>
				<path style="fill:#E0E0E0;" d="M286.376,204.587c-0.166,0-0.329-0.086-0.418-0.241c-0.133-0.231-0.054-0.526,0.177-0.659
					l43.101-24.884c0.228-0.132,0.524-0.056,0.659,0.177c0.133,0.231,0.054,0.526-0.177,0.659l-43.101,24.884
					C286.541,204.566,286.459,204.587,286.376,204.587z"/>
			</g>
			<g>
				<path style="fill:#E0E0E0;" d="M286.376,209.112c-0.166,0-0.329-0.087-0.418-0.241c-0.133-0.231-0.054-0.526,0.177-0.659
					l43.101-24.884c0.228-0.133,0.524-0.055,0.659,0.177c0.133,0.231,0.054,0.526-0.177,0.659l-43.101,24.884
					C286.541,209.091,286.459,209.112,286.376,209.112z"/>
			</g>
			<g>
				<path style="fill:#E0E0E0;" d="M286.376,213.636c-0.166,0-0.329-0.086-0.418-0.241c-0.133-0.231-0.054-0.526,0.177-0.659
					l43.101-24.884c0.228-0.132,0.524-0.056,0.659,0.177c0.133,0.231,0.054,0.526-0.177,0.659l-43.101,24.884
					C286.541,213.615,286.459,213.636,286.376,213.636z"/>
			</g>
			<g>
				<path style="fill:#E0E0E0;" d="M286.376,218.16c-0.166,0-0.329-0.086-0.418-0.241c-0.133-0.231-0.054-0.526,0.177-0.659
					l27.414-15.827c0.227-0.132,0.525-0.056,0.659,0.177c0.133,0.231,0.054,0.526-0.177,0.659l-27.414,15.827
					C286.541,218.139,286.459,218.16,286.376,218.16z"/>
			</g>
			<g>
				<path style="fill:#E0E0E0;" d="M290.293,220.423c-0.166,0-0.329-0.086-0.418-0.241c-0.133-0.231-0.054-0.526,0.177-0.659
					l39.184-22.623c0.228-0.132,0.524-0.056,0.659,0.177c0.133,0.231,0.054,0.526-0.177,0.659l-39.184,22.623
					C290.458,220.402,290.375,220.423,290.293,220.423z"/>
			</g>
			<g>
				<path style="fill:#E0E0E0;" d="M286.376,227.208c-0.166,0-0.329-0.087-0.418-0.241c-0.133-0.231-0.054-0.526,0.177-0.659
					l43.101-24.884c0.228-0.132,0.524-0.056,0.659,0.177c0.133,0.231,0.054,0.526-0.177,0.659l-43.101,24.884
					C286.541,227.187,286.459,227.208,286.376,227.208z"/>
			</g>
			<g>
				<path style="fill:#E0E0E0;" d="M286.376,231.732c-0.166,0-0.329-0.086-0.418-0.241c-0.133-0.231-0.054-0.526,0.177-0.659
					l43.101-24.884c0.228-0.133,0.524-0.055,0.659,0.177c0.133,0.231,0.054,0.526-0.177,0.659l-43.101,24.884
					C286.541,231.712,286.459,231.732,286.376,231.732z"/>
			</g>
			<g>
				<path style="fill:#E0E0E0;" d="M286.376,236.257c-0.166,0-0.329-0.086-0.418-0.241c-0.133-0.231-0.054-0.526,0.177-0.659
					l43.101-24.884c0.228-0.132,0.524-0.056,0.659,0.177c0.133,0.231,0.054,0.526-0.177,0.659l-43.101,24.884
					C286.541,236.236,286.459,236.257,286.376,236.257z"/>
			</g>
			<g>
				<path style="fill:#E0E0E0;" d="M286.376,240.781c-0.166,0-0.329-0.086-0.418-0.241c-0.133-0.231-0.054-0.526,0.177-0.659
					l43.101-24.884c0.228-0.133,0.524-0.056,0.659,0.177c0.133,0.231,0.054,0.526-0.177,0.659l-43.101,24.884
					C286.541,240.76,286.459,240.781,286.376,240.781z"/>
			</g>
			<g>
				<path style="fill:#E0E0E0;" d="M286.376,245.305c-0.166,0-0.329-0.086-0.418-0.241c-0.133-0.231-0.054-0.526,0.177-0.659
					l35.262-20.358c0.228-0.132,0.525-0.056,0.659,0.177c0.133,0.231,0.054,0.526-0.177,0.659l-35.262,20.358
					C286.541,245.285,286.459,245.305,286.376,245.305z"/>
			</g>
			<g>
				<path style="fill:#E0E0E0;" d="M290.296,247.567c-0.166,0-0.329-0.086-0.418-0.241c-0.133-0.231-0.054-0.526,0.177-0.659
					l39.181-22.621c0.228-0.132,0.524-0.055,0.659,0.177c0.133,0.231,0.054,0.526-0.177,0.659l-39.181,22.621
					C290.461,247.546,290.378,247.567,290.296,247.567z"/>
			</g>
			<g>
				<path style="fill:#E0E0E0;" d="M286.376,254.354c-0.166,0-0.329-0.086-0.418-0.241c-0.133-0.231-0.054-0.526,0.177-0.659
					l43.101-24.884c0.228-0.133,0.524-0.056,0.659,0.177c0.133,0.231,0.054,0.526-0.177,0.659l-43.101,24.884
					C286.541,254.333,286.459,254.354,286.376,254.354z"/>
			</g>
			<g>
				<path style="fill:#E0E0E0;" d="M286.376,258.878c-0.166,0-0.329-0.086-0.418-0.241c-0.133-0.231-0.054-0.526,0.177-0.659
					l43.101-24.884c0.228-0.132,0.524-0.055,0.659,0.177c0.133,0.231,0.054,0.526-0.177,0.659l-43.101,24.884
					C286.541,258.857,286.459,258.878,286.376,258.878z"/>
			</g>
			<g>
				<path style="fill:#E0E0E0;" d="M286.376,263.402c-0.166,0-0.329-0.086-0.418-0.241c-0.133-0.231-0.054-0.526,0.177-0.659
					l43.101-24.884c0.228-0.132,0.524-0.055,0.659,0.177c0.133,0.231,0.054,0.526-0.177,0.659l-43.101,24.884
					C286.541,263.381,286.459,263.402,286.376,263.402z"/>
			</g>
			<g>
				<path style="fill:#E0E0E0;" d="M286.376,267.927c-0.166,0-0.329-0.086-0.418-0.241c-0.133-0.231-0.054-0.526,0.177-0.659
					l43.101-24.885c0.228-0.132,0.524-0.056,0.659,0.177c0.133,0.231,0.054,0.526-0.177,0.659l-43.101,24.885
					C286.541,267.906,286.459,267.927,286.376,267.927z"/>
			</g>
			<g>
				<path style="fill:#E0E0E0;" d="M286.376,272.451c-0.166,0-0.329-0.086-0.418-0.241c-0.133-0.231-0.054-0.526,0.177-0.659
					l19.592-11.311c0.228-0.132,0.525-0.056,0.659,0.177c0.133,0.231,0.054,0.526-0.177,0.659l-19.592,11.311
					C286.541,272.43,286.459,272.451,286.376,272.451z"/>
			</g>
			<g>
				<path style="fill:#E0E0E0;" d="M290.295,274.715c-0.166,0-0.329-0.086-0.418-0.241c-0.133-0.231-0.054-0.526,0.177-0.659
					l39.182-22.624c0.228-0.132,0.524-0.056,0.659,0.177c0.133,0.231,0.054,0.526-0.177,0.659l-39.182,22.624
					C290.46,274.694,290.377,274.715,290.295,274.715z"/>
			</g>
			<g>
				<path style="fill:#E0E0E0;" d="M286.376,281.499c-0.166,0-0.329-0.086-0.418-0.241c-0.133-0.231-0.054-0.526,0.177-0.659
					l43.101-24.884c0.228-0.132,0.524-0.056,0.659,0.177c0.133,0.231,0.054,0.526-0.177,0.659l-43.101,24.884
					C286.541,281.478,286.459,281.499,286.376,281.499z"/>
			</g>
			<g>
				<path style="fill:#E0E0E0;" d="M286.376,286.023c-0.166,0-0.329-0.086-0.418-0.241c-0.133-0.231-0.054-0.526,0.177-0.659
					l43.101-24.884c0.228-0.132,0.524-0.056,0.659,0.177c0.133,0.231,0.054,0.526-0.177,0.659l-43.101,24.884
					C286.541,286.003,286.459,286.023,286.376,286.023z"/>
			</g>
			<g>
				<path style="fill:#E0E0E0;" d="M286.376,290.547c-0.166,0-0.329-0.086-0.418-0.241c-0.133-0.231-0.054-0.526,0.177-0.659
					l43.101-24.884c0.228-0.132,0.524-0.056,0.659,0.177c0.133,0.231,0.054,0.526-0.177,0.659l-43.101,24.884
					C286.541,290.526,286.459,290.547,286.376,290.547z"/>
			</g>
		</g>
	</g>
</g>
<g id="Picture">
	<g id="Image_1_">
		<g>
			<polygon style="fill:#FFFFFF;" points="281.854,131.372 335.016,100.634 335.016,147.813 281.802,178.577 			"/>
			<g>
				<polygon style="fill:#BA68C8;" points="286.634,134.156 330.192,108.994 330.192,145.03 286.634,170.212 				"/>
				<polygon style="fill:#BA68C8;" points="288.081,134.992 328.745,111.501 328.745,144.195 288.081,167.705 				"/>
				<polygon style="opacity:0.8;fill:#FFFFFF;" points="286.634,134.156 330.192,108.994 330.192,145.03 286.634,170.212 				"/>
				<polygon style="fill:#BA68C8;" points="288.081,157.574 299.699,134.883 314.216,147.113 311.039,142.669 319.98,130.277 
					328.745,134.27 328.745,144.195 288.081,167.705 				"/>
				<path style="fill:#BA68C8;" d="M317.721,120.452c1.466-0.846,2.654-0.16,2.654,1.532c0,1.692-1.188,3.75-2.654,4.596
					c-1.466,0.846-2.654,0.16-2.654-1.532C315.068,123.356,316.256,121.298,317.721,120.452z"/>
			</g>
			<path style="fill:#BA68C8;" d="M334.685,101.206v46.416l-52.553,30.383l0.052-46.442L334.685,101.206 M335.346,100.062
				l-53.822,31.119l-0.053,47.967l53.874-31.146V100.062L335.346,100.062z"/>
		</g>
		<polygon style="fill:#BA68C8;" points="281.524,131.182 278.763,129.59 332.585,98.471 335.346,100.063 		"/>
		<polygon style="opacity:0.4;fill:#FFFFFF;" points="281.524,131.182 278.763,129.59 332.585,98.471 335.346,100.063 		"/>
		<polygon style="fill:#BA68C8;" points="281.524,131.182 281.471,179.149 278.79,177.601 278.763,129.59 281.471,131.148 		"/>
	</g>
</g>
<g id="Character">
	<g id="Character_29_">
		<g id="Bottom_3_">
			<path d="M350.512,416.6c2.224-1.864,4.076-2.649,4.494-1.328c0.419,1.321-0.06,5.238-0.06,5.238l-1.037,3.634l0.005,3.221
				c0,0-0.663,1.97-0.698,2.107c-0.035,0.137-2.613-5.126-2.613-5.126S347.369,418.52,350.512,416.6z"/>
			<g>
				<path id="XMLID_3455_" style="fill:#455A64;" d="M410.152,408.594c0,0-14.996-22.501-22.673-35.99
					c-5.675-9.972-6.205-11.913-7.651-18.471c-3.105-14.091-3.833-17.393-3.833-17.393l-3.977,28.603
					c0.736,3.09,2.225,9.204,2.328,12.812c0.131,4.794-0.207,11.548-1.408,21.064c-1.911,15.134-3.956,23.378-3.956,23.378
					c-1.079,0.789-4.243,0.981-6.992,0.932c-3.811-0.068-7.892-1.385-7.892-1.385s-2.732-33.601-3.388-42.846
					c-0.788-11.097-1.069-15.452-1.491-21.547c-0.671-9.7-2.154-23.742-2.02-41.587c0.267-35.5,7.814-51.81,7.814-51.81
					l43.096-0.279c1.462,4.756,6.937,9.25,7.323,23.662c0.1,3.709-1.615,11.083-1.604,16.833
					c0.038,18.649-1.212,47.964-1.212,47.964c4.372,3.993,7.585,7.613,10.694,16.976c1.887,5.684,7.826,23.805,9.586,28.891
					C416.908,400.228,410.152,408.594,410.152,408.594z"/>
				<g>
					<path style="fill:#37474F;" d="M369.843,281.822l1.052-0.067c0.324,6.484,1.154,13.886,1.929,14.539
						c1.344,1.124,6.602,2.427,7.826,2.23c1.262-0.196,2.377-1.094,4.774-3.843c1.683-1.931,1.642-3.233,1.552-6.085
						c-0.034-1.069-0.941-7.188-1.137-8.7l1.007-0.116c0.35,1.871,1.149,7.718,1.183,8.771c0.091,2.869,0.147,4.6-1.827,6.864
						c-2.593,2.973-3.856,3.953-5.406,4.194c-0.18,0.027-0.409,0.034-0.676,0.022c-2.121-0.094-6.626-1.364-7.961-2.482
						C370.657,295.894,370.006,285.1,369.843,281.822z"/>
					<path style="fill:#37474F;" d="M404.949,293.309c0.05-0.37,0.097-0.734,0.142-1.089c-2.016-0.291-4.56-0.923-5.474-1.59
						c-0.816-0.6-2.008-7.109-3.356-13.558l-0.904,0.476c0.895,3.516,2.071,12.825,3.653,13.98
						C400.033,292.276,402.734,292.991,404.949,293.309z"/>
					<path style="fill:#37474F;" d="M355.258,269.463l1.018,0.286c-2.834,10.941-3.257,20.715,2.113,23.672
						c0.423-3.562,0.277-2.879,0.897-6.591c0.662-3.971,1.961-11.13,2.879-15.351l1.028,0.243
						c-0.899,4.135-2.302,11.196-2.838,15.109c-2.803,20.464-5.116,49.16-4.18,70.058c0.846,18.887,2.449,51.361,3.198,66.424
						c-0.363-0.05-0.718-0.105-1.063-0.165c-0.754-15.161-2.346-47.412-3.188-66.208c-0.431-9.627-0.054-23.45,0.792-36.511
						c0.629-9.716,1.569-19.01,2.345-25.846C352.109,291.508,352.219,281.198,355.258,269.463z"/>
					<path style="fill:#37474F;" d="M354.568,264.075l-2.401,8.944c0,0,11.41,5.243,23.289,4.446
						c11.879-0.797,19.99-3.328,25.302-8.002l-2.648-5.388H354.568z"/>
					<path style="fill:#37474F;" d="M385.157,306.454c0.306,14.621,3.506,41.762,5.261,49.846
						c1.505,6.926,19.127,37.393,24.772,47.04c-0.276,0.249-0.542,0.497-0.803,0.743c-5.577-9.512-23.426-40.312-24.997-47.54
						c-1.765-8.124-4.98-35.387-5.288-50.065L385.157,306.454z"/>
					<path style="fill:#37474F;" d="M390.208,274.599c4.008,8.778,4.749,17.289,1.414,25.658l-0.974-0.42
						c3.177-7.972,1.824-16.872-1.477-24.849L390.208,274.599z"/>
				</g>
				<path style="fill:#37474F;" d="M375.996,336.74l3.878-29.986c0,0,11.042-1.735,12.428-12.321
					c0.35,6.263-2.034,11.69-8.868,14.684l-5.124,27.7l1.52,17.316L375.996,336.74z"/>
			</g>
			<g>
				<path style="fill:#263238;" d="M329.005,439.795c-0.657-0.064-0.562,2.492-0.339,3.34c0.223,0.848,2.88,3.656,7.64,4.684
					c4.76,1.028,12.02-0.073,14.846-0.173c2.826-0.1,5.568,1.262,9.51,1.787c3.503,0.467,8.245-0.447,9.895-2.08
					c0.809-0.801,0.706-1.923,0.687-2.72c-0.043-1.892-0.213-2.274-0.43-2.259L329.005,439.795z"/>
				<path id="XMLID_3452_" style="fill:#37474F;" d="M370.894,438.119c0.334,1.864,0.324,3.66,0.045,5.547
					c-0.597,1.407-2.418,2.174-3.69,2.559c-3.355,1.015-5.899,0.801-9.585,0.031c-2.209-0.461-4.616-0.956-7.271-0.818
					c-2.917,0.151-6.935,0.648-9.843,0.329c-2.484-0.272-4.924-0.575-7.21-1.61c-1.93-0.874-3.808-1.992-4.333-4.011
					c-0.117-3.685,1.753-5.434,3.775-6.583c2.136-1.214,4.904-1.256,7.344-1.469c3.023-0.264,4.161-0.069,7.208-0.919
					c1.602-0.447,3.892,0.222,4.633-1.625c0.875-2.181,0.121-6.305,0.43-8.599c0.051-0.375,0.143-0.79,0.449-0.994
					c0.441-0.294,1.008,0.027,1.448,0.324c2.086,1.411,4.263,2.025,6.724,2.332c6.557,0.816,8.324-1.608,8.324-1.608l0.309-1.424
					c0,0,1.43,0.238,0.939,3.458c-0.437,2.86-0.596,4.212-0.642,8.064C369.906,434.61,370.564,436.277,370.894,438.119z"/>
				<path style="fill:#263238;" d="M341.263,432.008c-2.303,1.112-1.591,5.364-1.591,5.364s4.255,0.729,7.65-0.203
					c4.323-1.187,6.117-4.266,5.984-7.979c-0.134-3.713-2.65-8.072-3.338-9.52c-0.525-1.104-0.449-2.316,0.544-3.07
					c-2.03,1.442-2.105,2.943-1.415,4.707s1.853,5.36,1.491,6.824C350.227,429.595,346.789,431.46,341.263,432.008z"/>
			</g>
			<g>
				<path style="fill:#263238;" d="M409.702,407.162c-1.183,2.011-2.563,3.473,1.294,5.767c2.974,1.769,3.248,3.346,4.267,5.375
					c1.019,2.03,1.102,6.272,1.102,6.272s4.41-8.052,2.668-12.921C417.29,406.786,409.702,407.162,409.702,407.162z"/>
				<path style="fill:#37474F;" d="M425.18,401.682c1.001,1.325,3.202,2.37,5.036,3.387c1.292,0.716,2.62,1.415,3.081,2.865
					c0.052,0.161-0.662,1.134-0.631,1.3c0.133,0.71,0.098,1.453,0.062,2.18c-0.127,2.527-1.323,4.463-1.451,6.99
					c-0.052,1.031-0.128,1.983-0.335,2.982c-0.233,1.122-0.053,2.445-0.052,3.589c0,1.255,0.002,2.51,0.015,3.764
					c0.005,0.491-0.088,1.126,0.043,1.606c0.141,0.516-7.746,5.352-10.93,7.219c-0.184,0.111-0.369,0.199-0.577,0.299
					c-2.918,1.246-6.038-0.203-6.038-0.203c-6.706-2.029-6.454-4.529-6.454-4.529s-0.384-2.838,2.817-4.988
					c0.403-0.271,0.807-0.506,1.212-0.681c0.023-0.012,0.046-0.025,0.058-0.037c2.708-1.24,5.074-0.616,5.074-0.616
					s0.313-0.781,0.252-3.173c-0.058-2.268,0.039-2.556-0.227-4.81c-0.169-1.425-1.416-3.8-2.29-4.902
					c-1.515-1.909-3.181-4.335-4.221-5.702c-1.136-1.169-1.472-4.698,3.732-9.135c4.98-4.245,8.863-3.697,9.706-2.122
					C423.061,396.964,424.159,400.331,425.18,401.682z"/>
				<path style="fill:#263238;" d="M412.799,429.52c0.391-1.184,0.75-1.75,2.142-2.855c0.713,0.033,1.167,0.143,1.167,0.143
					C415.494,427.527,413.191,428.645,412.799,429.52z"/>
				<g>
					<path id="XMLID_3448_" style="fill:#BA68C8;" d="M434.179,409.338c1.499,0.542,0.223,4.764-0.624,8.753
						c-0.847,3.99-1.319,5.385-0.765,8.67c0.555,3.285,0.865,4.755-0.438,5.999c-1.302,1.244-11.775,6.514-11.775,6.514
						s1.966-5.132,2.07-12.448c0.104-7.316,0.475-12.036,3.753-15.445C429.679,407.973,434.179,409.338,434.179,409.338z"/>
					<path id="XMLID_5562_" style="opacity:0.4;" d="M434.179,409.338c1.499,0.542,0.223,4.764-0.624,8.753
						c-0.847,3.99-1.319,5.385-0.765,8.67c0.555,3.285,0.865,4.755-0.438,5.999c-1.302,1.244-11.775,6.514-11.775,6.514
						s1.966-5.132,2.07-12.448c0.104-7.316,0.475-12.036,3.753-15.445C429.679,407.973,434.179,409.338,434.179,409.338z"/>
				</g>
				<path id="XMLID_5561_" style="fill:#263238;" d="M406.944,433.128c0.255,1.405,4.336,4.03,8.933,3.667
					c4.742-0.374,4.931-1.42,5.294-7.089c0.362-5.67,0.368-13.496,2.491-16.998c2.123-3.502,5.072-5.688,9.635-4.774
					c0.529,0.225,2.013,1.576,1.573,2.965c0,0-0.054-1.069-1.931-1.5c-1.61-0.369-3.491-0.192-5.976,2.355
					c-2.9,2.972-3.182,9.502-3.183,15.098c-0.002,5.596-0.091,12.083-4.485,12.879c-4.394,0.795-9.127-0.994-12.11-3.38
					C406.629,434.884,406.944,433.128,406.944,433.128z"/>
			</g>
		</g>
		<g id="Top_2_">
			<g id="XMLID_5570_">
				<path id="XMLID_5579_" style="fill:#263238;" d="M357.469,172.962c-1.298-1.712-1.136-4.287-0.226-6.234
					c0.909-1.946,2.676-3.954,7.601-6.117c5.849-2.568,21.55-3.659,28.602,7.015c1.017,1.539-16.141,29.353-15.766,35.374
					c-3.705-4.43-15.883-19.956-15.883-19.956c-3.023-1.52-4.83-2.763-5.299-5.736C356.364,176.461,356.54,174.328,357.469,172.962z
					"/>
				<g id="XMLID_5574_">
					<path id="XMLID_5577_" style="fill:#F0997A;" d="M359.282,181.256c0,0-4.632,6.589-4.203,7.177
						c0.428,0.589,2.977,2.254,2.977,2.254L359.282,181.256z"/>
					<path id="XMLID_5575_" style="fill:#FFBDA7;" d="M365.293,169.092c-2.899,1.15-5.478,3.154-6.747,9.276
						c-0.332,1.6,0.788,3.889,0.078,6c-3.038,9.04-0.618,16.894,1.063,18.701c1.135,1.219,7.419,2.129,10.792,1.418
						c4.22-0.891,13.487-4.384,18.196-10.591c5.54-7.303,7.376-17.48,2.011-21.955C383.137,165.642,368.388,167.864,365.293,169.092
						z"/>
					<path style="fill:#FFBDA7;" d="M385.635,198.921l0.715,11.033l0,0c2.458,0.837,1.937,4.315,0.417,6.43l0.21,3.246l-16.236,1.05
						l-1.956-18.662L385.635,198.921z"/>
					<path style="fill:#F0997A;" d="M360.008,203.322c1.417,0.909,4.619,1.719,9.059,1.385l-0.214-2.291
						c0,0-1.813,0.646-4.275,0.984C362.131,203.736,360.034,203.327,360.008,203.322z"/>
				</g>
				<g>
					<path id="XMLID_5573_" style="fill:#263238;" d="M360.919,172.124c-0.41,3.996,2.022,5.418,3.76,6.32
						c-0.715,1.118-1.208,3.379-1.037,4.674c0.272,2.056,0.937,3.768,2.892,4.567c1.197,0.489,1.591-0.027,2.089-0.963
						c0.708-1.332,1.62-3.386,4.538-2.793c3.347,0.68,3.912,5.819,1.732,9.023c-0.961,1.412-2.462,2.328-3.968,2.318
						c-1.35-0.009-2.229-1.23-2.229-1.23s-0.06,4.454,5.477,7.445c0,0,5.55,3.608,11.565,2.241c2.374-2.488,5.156-5.046,8.099-8.766
						c6.802-8.597,9.093-24.989-1.328-28.619c-0.497-0.173-10.018-2.128-14.767-1.411
						C363.173,167.128,360.99,171.431,360.919,172.124z"/>
				</g>
			</g>
			<g>
				<path id="XMLID_3480_" style="fill:#FFBDA7;" d="M391.239,209.956c6.914,0.131,10.868,1.179,15.516,9.526
					c4.399,7.9,11.784,18.935,14.623,27.016c1.018,2.899,1.656,5.626-2.066,8.251c-8.418,5.938-21.48,12.602-21.48,12.602
					l-2.332-12.64l9.008-6.364l-4.206-7.438L391.239,209.956z"/>
				<path style="fill:#F0997A;" d="M404.508,248.348c1.043,1.395,2.874,3.039,5.054,3.577c-2.351,0.817-5.324-1.262-6.28-2.711
					L404.508,248.348z"/>
				<g>
					<path style="fill:#BA68C8;" d="M389.927,209.735c3.05-0.109,8.966-0.318,12.862,3.488c3.896,3.806,12.536,19.689,12.536,19.689
						s-1.702,3.399-7.397,6.346c-5.695,2.947-8.582,2.121-8.582,2.121l-8.309-15.273L389.927,209.735z"/>
					<path style="opacity:0.2;" d="M389.927,209.735c3.05-0.109,8.966-0.318,12.862,3.488c3.896,3.806,12.536,19.689,12.536,19.689
						s-1.702,3.399-7.397,6.346c-5.695,2.947-8.582,2.121-8.582,2.121l-8.309-15.273L389.927,209.735z"/>
				</g>
			</g>
			<g id="XMLID_3244_">
				<path id="XMLID_3285_" style="fill:#263238;" d="M399.486,215.214c-2.751-5.375-10.258-5.44-9.509-5.479
					c-1.666,0.088-3.627,0.22-3.627,0.22c0.951,2.03-0.533,3.419-3.172,4.106c-3.407,0.887-8.613,1.113-12.22-1.152l-1.111-0.756
					c0,0-7.4,0.924-9.456,1.639c-5.779,2.01-7.255,3.928-13.582,19.174c-2.706,6.52-1.314,13.387,5.424,17.287
					c0.404,4.08-0.404,9.42-0.701,13.822c-0.297,4.402,0.346,4.138,1.839,5.042c8.24,4.99,29.568,7.375,44.461-1.765
					c2.441-1.962,2.897-2.509,2.864-11.223C400.657,246.157,405.929,227.803,399.486,215.214z"/>
			</g>
			<g>
				<path id="XMLID_3288_" style="fill:#FFBDA7;" d="M322.631,235.374c0,0-25.086-4.992-26.517-6.027
					c-1.218-0.88-1.611-2.322-2.217-3.609c-0.696-1.477-1.691-2.805-2.775-4.018c-0.713-0.799-1.573-1.487-2.239-2.32
					c-0.617-0.772-0.874-1.746-1.469-2.527c-0.645-0.847-1.409-0.22-1.789,0.535c-0.505,1.003-0.311,2.412,0.081,3.415
					c0.187,0.479,0.351,0.967,0.541,1.445c0.174,0.435,0.435,0.87,0.519,1.336c0.04,0.225,0.069,0.521-0.052,0.722
					c-0.272,0.451-1.119,0.148-1.496-0.002c-2.481-0.987-4.878-2.586-6.752-4.483c-0.822-0.833-1.469-1.767-2.352-2.546
					c-0.778-0.686-1.743-1.39-2.706-1.796c-0.5-0.211-1.573-0.587-2.127-0.382c-1.086,0.403,0.125,2.128,0.405,2.712
					c0.348,0.725,0.544,1.276,0.505,2.094c-0.051,1.069,0.15,1.519,0.741,2.406c0.498,0.747,1.263,1.534,1.374,2.439
					c0.038,0.312,0.002,0.656,0,0.97c-0.005,0.893,0.596,2.018,1.155,2.679c0.719,0.85,0.892,1.414,1.007,2.513
					c0.222,2.118,2.44,3.68,4.092,4.697c1.901,1.17,3.99,2.003,6.106,2.695c1.14,0.374,2.249,0.836,3.398,1.181
					c1.028,0.309,2.087,0.508,3.089,0.891c2.385,0.911,20.857,7.949,28.22,9.987c3.629,1.005,4.611,1.906,9.722-0.761
					c9.204-4.805,18.228-8.092,23.523-11.336c7.254-4.445,10.339-6.936,11.327-11.669c2.29-10.972-4.943-13.004-4.943-13.004
					c-2.643,0.68-4.015,1.298-12.073,5.956C340.321,224.542,322.631,235.374,322.631,235.374z"/>
				<g>
					<path style="fill:#BA68C8;" d="M361.004,213.609c-4.447,0.512-6.754,1.734-11.694,4.839c-4.94,3.105-13.334,8.548-13.334,8.548
						s0.435,7.134,5.871,13.345c3.953,4.516,7.172,4.141,7.172,4.141s13.255-9.746,15.94-13.503
						C367.643,227.221,369.619,215.958,361.004,213.609z"/>
					<path style="opacity:0.2;" d="M361.004,213.609c-4.447,0.512-6.754,1.734-11.694,4.839c-4.94,3.105-13.334,8.548-13.334,8.548
						s0.435,7.134,5.871,13.345c3.953,4.516,7.172,4.141,7.172,4.141s13.255-9.746,15.94-13.503
						C367.643,227.221,369.619,215.958,361.004,213.609z"/>
				</g>
			</g>
		</g>
	</g>
</g>
</svg>
