<svg width="605" height="510" viewBox="0 0 605 510" fill="none" xmlns="http://www.w3.org/2000/svg">
<path d="M212.076 173.28C213.676 168.48 216.516 164.84 220.596 162.36C224.676 159.8 229.876 158.52 236.196 158.52V164.16H234.396C227.996 164.16 222.676 166 218.436 169.68C214.196 173.28 212.076 179.2 212.076 187.44V225H206.676V159.84H212.076V173.28ZM277.309 225.96C271.229 225.96 265.749 224.6 260.869 221.88C255.989 219.16 252.149 215.28 249.349 210.24C246.629 205.12 245.269 199.16 245.269 192.36C245.269 185.64 246.669 179.76 249.469 174.72C252.269 169.6 256.109 165.72 260.989 163.08C265.949 160.36 271.469 159 277.549 159C283.629 159 289.109 160.36 293.989 163.08C298.869 165.72 302.669 169.56 305.389 174.6C308.189 179.64 309.589 185.56 309.589 192.36C309.589 199.16 308.189 205.12 305.389 210.24C302.589 215.28 298.709 219.16 293.749 221.88C288.869 224.6 283.389 225.96 277.309 225.96ZM277.309 221.16C282.029 221.16 286.429 220.12 290.509 218.04C294.669 215.88 297.989 212.64 300.469 208.32C302.949 204 304.189 198.68 304.189 192.36C304.189 186.12 302.949 180.84 300.469 176.52C297.989 172.2 294.709 169 290.629 166.92C286.549 164.76 282.149 163.68 277.429 163.68C272.709 163.68 268.309 164.76 264.229 166.92C260.229 169 256.989 172.2 254.509 176.52C252.029 180.84 250.789 186.12 250.789 192.36C250.789 198.68 251.989 204 254.389 208.32C256.869 212.64 260.109 215.88 264.109 218.04C268.189 220.12 272.589 221.16 277.309 221.16ZM411.173 159.84L390.653 225H385.493L364.733 167.28L343.853 225H338.693L318.173 159.84H323.813L341.333 218.88L362.213 159.84H367.373L388.133 218.64L405.653 159.84H411.173ZM196.603 339.84L176.083 405H170.923L150.163 347.28L129.283 405H124.123L103.603 339.84H109.243L126.763 398.88L147.643 339.84H152.803L173.563 398.64L191.083 339.84H196.603ZM211.194 325.32C209.914 325.32 208.834 324.92 207.954 324.12C207.074 323.24 206.634 322.08 206.634 320.64C206.634 319.28 207.074 318.16 207.954 317.28C208.834 316.4 209.914 315.96 211.194 315.96C212.474 315.96 213.554 316.4 214.434 317.28C215.314 318.16 215.754 319.28 215.754 320.64C215.754 322.08 215.314 323.24 214.434 324.12C213.554 324.92 212.474 325.32 211.194 325.32ZM213.834 339.84V405H208.434V339.84H213.834ZM241.669 344.52V387.6C241.669 392.4 242.549 395.72 244.309 397.56C246.069 399.32 249.189 400.2 253.669 400.2H260.989V405H252.829C247.149 405 242.949 403.68 240.229 401.04C237.589 398.32 236.269 393.84 236.269 387.6V344.52H226.429V339.84H236.269V323.28H241.669V339.84H260.989V344.52H241.669ZM304.751 338.52C312.431 338.52 318.711 340.92 323.591 345.72C328.471 350.44 330.911 357.48 330.911 366.84V405H325.631V367.2C325.631 359.44 323.671 353.52 319.751 349.44C315.831 345.28 310.511 343.2 303.791 343.2C296.751 343.2 291.111 345.44 286.871 349.92C282.711 354.4 280.631 361.04 280.631 369.84V405H275.231V316.2H280.631V353.64C282.471 348.76 285.551 345.04 289.871 342.48C294.191 339.84 299.151 338.52 304.751 338.52ZM438.943 339.84V405H433.543V390.84C431.703 395.8 428.623 399.6 424.303 402.24C420.063 404.8 415.183 406.08 409.663 406.08C401.903 406.08 395.543 403.72 390.583 399C385.703 394.2 383.263 387.12 383.263 377.76V339.84H388.543V377.4C388.543 385.16 390.503 391.12 394.423 395.28C398.343 399.36 403.663 401.4 410.383 401.4C417.423 401.4 423.023 399.16 427.183 394.68C431.423 390.2 433.543 383.56 433.543 374.76V339.84H438.943ZM480.349 405.96C473.069 405.96 467.109 404.36 462.469 401.16C457.909 397.96 455.349 393.4 454.789 387.48H460.309C460.709 391.72 462.629 395.08 466.069 397.56C469.589 400.04 474.349 401.28 480.349 401.28C485.309 401.28 489.229 400.04 492.109 397.56C495.069 395 496.549 391.88 496.549 388.2C496.549 385.64 495.749 383.56 494.149 381.96C492.629 380.28 490.709 379 488.389 378.12C486.069 377.24 482.909 376.28 478.909 375.24C474.109 373.96 470.229 372.72 467.269 371.52C464.309 370.24 461.789 368.36 459.709 365.88C457.629 363.4 456.589 360.08 456.589 355.92C456.589 352.88 457.509 350.08 459.349 347.52C461.189 344.88 463.749 342.8 467.029 341.28C470.309 339.76 474.029 339 478.189 339C484.989 339 490.469 340.72 494.629 344.16C498.869 347.52 501.149 352.2 501.469 358.2H496.069C495.829 353.88 494.149 350.36 491.029 347.64C487.909 344.92 483.589 343.56 478.069 343.56C473.429 343.56 469.589 344.76 466.549 347.16C463.509 349.56 461.989 352.48 461.989 355.92C461.989 358.96 462.829 361.44 464.509 363.36C466.269 365.2 468.389 366.64 470.869 367.68C473.429 368.64 476.789 369.68 480.949 370.8C485.509 372 489.149 373.2 491.869 374.4C494.669 375.52 497.029 377.2 498.949 379.44C500.869 381.6 501.829 384.52 501.829 388.2C501.829 391.56 500.909 394.6 499.069 397.32C497.229 400.04 494.669 402.16 491.389 403.68C488.109 405.2 484.429 405.96 480.349 405.96Z" fill="url(#paint0_linear_293_144)"/>
<g filter="url(#filter0_d_293_144)">
<path d="M146.803 134C142.803 126.667 137.303 121.083 130.303 117.25C123.303 113.417 115.136 111.5 105.803 111.5C95.4694 111.5 86.3027 113.833 78.3027 118.5C70.3027 123.167 64.0527 129.833 59.5527 138.5C55.0527 147.167 52.8027 157.167 52.8027 168.5C52.8027 180.167 55.0527 190.333 59.5527 199C64.2194 207.667 70.6361 214.333 78.8027 219C86.9694 223.667 96.4694 226 107.303 226C120.636 226 131.553 222.5 140.053 215.5C148.553 208.333 154.136 198.417 156.803 185.75H96.8027V159H191.303V189.5C188.969 201.667 183.969 212.917 176.303 223.25C168.636 233.583 158.719 241.917 146.553 248.25C134.553 254.417 121.053 257.5 106.053 257.5C89.2194 257.5 73.9694 253.75 60.3027 246.25C46.8027 238.583 36.1361 228 28.3027 214.5C20.6361 201 16.8027 185.667 16.8027 168.5C16.8027 151.333 20.6361 136 28.3027 122.5C36.1361 108.833 46.8027 98.25 60.3027 90.75C73.9694 83.0833 89.1361 79.25 105.803 79.25C125.469 79.25 142.553 84.0833 157.053 93.75C171.553 103.25 181.553 116.667 187.053 134H146.803Z" fill="url(#paint1_linear_293_144)"/>
</g>
<defs>
<filter id="filter0_d_293_144" x="12.8027" y="64.25" width="182.5" height="193.25" filterUnits="userSpaceOnUse" color-interpolation-filters="sRGB">
<feFlood flood-opacity="0" result="BackgroundImageFix"/>
<feColorMatrix in="SourceAlpha" type="matrix" values="0 0 0 0 0 0 0 0 0 0 0 0 0 0 0 0 0 0 127 0" result="hardAlpha"/>
<feOffset dy="-11"/>
<feGaussianBlur stdDeviation="2"/>
<feComposite in2="hardAlpha" operator="out"/>
<feColorMatrix type="matrix" values="0 0 0 0 0 0 0 0 0 0 0 0 0 0 0 0 0 0 0.25 0"/>
<feBlend mode="normal" in2="BackgroundImageFix" result="effect1_dropShadow_293_144"/>
<feBlend mode="normal" in="SourceGraphic" in2="effect1_dropShadow_293_144" result="shape"/>
</filter>
<linearGradient id="paint0_linear_293_144" x1="-21.7857" y1="228.765" x2="513.654" y2="275.81" gradientUnits="userSpaceOnUse">
<stop stop-color="#4996FF"/>
<stop offset="1" stop-color="#1B2E35"/>
</linearGradient>
<linearGradient id="paint1_linear_293_144" x1="-9.28571" y1="136.5" x2="455.214" y2="-131.068" gradientUnits="userSpaceOnUse">
<stop stop-color="#448AE7"/>
<stop stop-color="#3D7CCC"/>
<stop stop-color="#4996FF"/>
<stop offset="1" stop-color="#1B2E35"/>
<stop offset="1" stop-color="#2A5077"/>
</linearGradient>
</defs>
</svg>
