<svg width="1509" height="1808" viewBox="0 0 1509 1808" fill="none" xmlns="http://www.w3.org/2000/svg">
<path d="M516.285 140.678L822.739 192.873L662.258 350.079L382.864 642.525L189.427 454.305L516.285 140.678Z" fill="white"/>
<path d="M1307.08 981.208L1124.32 1170.51L577.558 639.528L772.48 440.346L1307.08 981.208Z" fill="white"/>
<path d="M926.412 1175.57L740.057 1361.8L3.01232 645.56L190.193 454.288L926.412 1175.57Z" fill="white"/>
<path d="M1048.46 1615.43L690.525 1614.88L913.979 1391.34L1306.67 979.429L1502.3 1168.11L1048.46 1615.43Z" fill="white"/>
<path d="M658.602 1444.96L471.422 1636.23L17.5538 1194.44L204.734 1003.17L658.602 1444.96Z" fill="white"/>
<path d="M1502.96 629.484L1315.78 820.756L861.909 378.971L1049.09 187.699L1502.96 629.484Z" fill="white"/>
</svg>
